<svg width="235" height="235" viewBox="0 0 235 235" fill="none" xmlns="http://www.w3.org/2000/svg">
<rect x="48" y="47" width="140" height="140" rx="8" fill="#C49E85"/>
<path fill-rule="evenodd" clip-rule="evenodd" d="M122 107.42C127.783 105.699 132 100.342 132 94C132 86.268 125.732 80 118 80C110.268 80 104 86.268 104 94C104 100.342 108.217 105.699 114 107.42V125C114 127.209 115.791 129 118 129C120.209 129 122 127.209 122 125V107.42Z" fill="white"/>
<rect x="67" y="137" width="102" height="34" rx="4" fill="#F8F4F9"/>
<rect x="90.4536" y="145" width="3.0925" height="18" rx="1.54625" fill="#B4B4B4"/>
<rect width="3.02656" height="18.3991" rx="1.51328" transform="matrix(0.544548 0.83873 -0.853327 0.521377 98.7003 148)" fill="#B4B4B4"/>
<rect width="3.02656" height="18.3991" rx="1.51328" transform="matrix(-0.544548 0.83873 0.853327 0.521377 85.2994 148)" fill="#B4B4B4"/>
<rect x="116.454" y="145" width="3.0925" height="18" rx="1.54625" fill="#B4B4B4"/>
<rect width="3.02656" height="18.3991" rx="1.51328" transform="matrix(0.544548 0.83873 -0.853327 0.521377 124.7 148)" fill="#B4B4B4"/>
<rect width="3.02656" height="18.3991" rx="1.51328" transform="matrix(-0.544548 0.83873 0.853327 0.521377 111.299 148)" fill="#B4B4B4"/>
<rect x="142.454" y="145" width="3.0925" height="18" rx="1.54625" fill="#B4B4B4"/>
<rect width="3.02656" height="18.3991" rx="1.51328" transform="matrix(0.544548 0.83873 -0.853327 0.521377 150.7 148)" fill="#B4B4B4"/>
<rect width="3.02656" height="18.3991" rx="1.51328" transform="matrix(-0.544548 0.83873 0.853327 0.521377 137.299 148)" fill="#B4B4B4"/>
<rect x="31" y="82.9999" width="42" height="42" rx="3" fill="#E2B08F" stroke="white" stroke-width="2"/>
<circle cx="52" cy="96.9999" r="6" fill="white"/>
<path d="M43 116C43 111.029 47.0294 107 52 107C56.9706 107 61 111.029 61 116V117H43V116Z" fill="white"/>
<path d="M177.167 24.265C178.322 22.265 181.209 22.265 182.363 24.265L209.21 70.765C210.365 72.765 208.921 75.265 206.612 75.265H152.918C150.609 75.265 149.166 72.765 150.32 70.765L177.167 24.265Z" fill="#E3B08F" stroke="white" stroke-width="2"/>
<rect x="175.765" y="34.765" width="8" height="27" rx="4" fill="white"/>
<circle cx="179.765" cy="67.765" r="4" fill="white"/>
</svg>
