<svg width="343" height="290" viewBox="0 0 343 290" fill="none" xmlns="http://www.w3.org/2000/svg">
<g clip-path="url(#clip0_1_876)">
<path d="M288.699 45.7751L287.087 43.1219C273.443 20.6892 248.842 7.17119 222.9 8.81616C219.555 9.00869 216.229 9.45213 212.951 10.1428C189.364 15.1904 168.841 33.0265 160.338 55.8705C155.33 69.3022 153.937 84.7703 144.419 95.4361C132.068 109.312 111.088 109.743 92.6814 109.173C74.2749 108.603 53.2484 109.087 40.9443 123.016C33.2633 131.778 30.8157 144.222 31.4326 155.869C33.0776 186.805 54.648 214.471 82.0488 228.222C109.45 241.972 141.746 243.199 171.746 237.15C213.78 228.679 253.757 205.411 277.781 169.493C301.806 133.576 307.888 84.5647 288.699 45.7751Z" fill="#F5F5F5"/>
<path d="M307.855 285.504C307.855 285.597 248.994 285.676 176.409 285.676C103.825 285.676 44.9506 285.577 44.9506 285.504C44.9506 285.431 103.792 285.331 176.409 285.331C249.027 285.331 307.855 285.385 307.855 285.504Z" fill="#263238"/>
<path d="M76.9613 79.6099L77.4389 80.4058C77.9741 81.2973 78.7547 82.0158 79.6874 82.4753L80.5232 82.8866L79.7272 83.3708C78.834 83.9058 78.1134 84.6863 77.6511 85.6193L77.2399 86.4485L76.7623 85.6591C76.2249 84.7654 75.4421 84.0448 74.5071 83.583L73.678 83.1718L74.4739 82.6942C75.3657 82.1564 76.084 81.3735 76.5434 80.439L76.9613 79.6099Z" fill="#6B4B3E"/>
<path d="M249.133 166.959L249.611 167.755C250.148 168.647 250.928 169.367 251.86 169.832L252.695 170.243L251.899 170.72C251.006 171.258 250.285 172.041 249.823 172.976L249.412 173.805L248.934 173.009C248.396 172.119 247.616 171.399 246.686 170.933L245.85 170.521L246.646 170.044C247.539 169.509 248.26 168.728 248.722 167.795L249.133 166.959Z" fill="#6B4B3E"/>
<path d="M155.615 2.93933L156.093 3.73529C156.628 4.62852 157.408 5.34916 158.341 5.81141L159.177 6.22265L158.381 6.70022C157.495 7.22629 156.775 7.99193 156.305 8.90901L155.894 9.74476L155.416 8.9488C154.879 8.0551 154.096 7.33451 153.161 6.87268L152.332 6.46144L153.128 5.98387C154.018 5.44694 154.736 4.66676 155.197 3.73529L155.615 2.93933Z" fill="#6B4B3E"/>
<path d="M267.566 77.8919L268.044 78.6879C268.581 79.5816 269.364 80.3022 270.299 80.764L271.128 81.1753L270.332 81.6528C269.442 82.1898 268.724 82.9699 268.263 83.9014L267.852 84.7372L267.374 83.9412C266.837 83.0475 266.054 82.3269 265.119 81.8651L264.29 81.4538L265.079 80.9763C265.971 80.4395 266.691 79.6594 267.155 78.7277L267.566 77.8919Z" fill="#6B4B3E"/>
<path d="M95.0958 110.261L95.4407 110.838C95.8334 111.489 96.4042 112.014 97.0857 112.35L97.6959 112.649L97.1122 113C96.4614 113.393 95.9366 113.964 95.5999 114.645L95.3014 115.249L94.9499 114.672C94.5572 114.021 93.9864 113.496 93.3049 113.159L92.7013 112.861L93.2784 112.509C93.9309 112.119 94.4562 111.547 94.7907 110.864L95.0958 110.261Z" fill="#6B4B3E"/>
<path d="M110.935 184.59L111.287 185.174C111.68 185.819 112.248 186.339 112.925 186.673L113.536 186.971L112.952 187.323C112.301 187.715 111.776 188.286 111.439 188.968L111.141 189.571L110.789 188.994C110.399 188.344 109.83 187.82 109.151 187.482L108.541 187.177L109.125 186.832C109.775 186.439 110.3 185.868 110.637 185.187L110.935 184.59Z" fill="#6B4B3E"/>
<path d="M262.366 55.3398L262.711 55.9169C263.102 56.5694 263.673 57.0947 264.356 57.4292L264.966 57.7343L264.383 58.0792C263.732 58.4719 263.207 59.0427 262.87 59.7242L262.572 60.3345L262.22 59.7508C261.828 59.0999 261.257 58.5751 260.575 58.2384L259.972 57.94L260.549 57.5884C261.201 57.1978 261.727 56.6264 262.061 55.9434L262.366 55.3398Z" fill="#6B4B3E"/>
<path d="M64.0403 94.5805L64.3852 95.1576C64.7768 95.8109 65.3478 96.338 66.0301 96.6765L66.6404 96.975L66.0567 97.3199C65.4086 97.716 64.8847 98.2859 64.5444 98.9649L64.2459 99.5751L63.8943 98.9914C63.5017 98.3406 62.9308 97.8158 62.2493 97.4791L61.6458 97.1806L62.2228 96.8291C62.8753 96.4385 63.4007 95.8671 63.7351 95.1841L64.0403 94.5805Z" fill="#6B4B3E"/>
<path d="M279.134 58.9349L279.333 59.2665C279.558 59.638 279.885 59.9372 280.275 60.1288L280.627 60.3013L280.295 60.5003C279.915 60.7213 279.609 61.0487 279.413 61.4422L279.24 61.7937L279.041 61.4621C278.818 61.0872 278.491 60.7853 278.1 60.5931L277.755 60.4207L278.086 60.2217C278.458 59.9965 278.757 59.6696 278.949 59.2798L279.134 58.9349Z" fill="#6B4B3E"/>
<path d="M266.737 154.423L266.936 154.761C267.161 155.133 267.488 155.432 267.878 155.624L268.223 155.796L267.891 155.995C267.518 156.22 267.217 156.547 267.023 156.937L266.85 157.289L266.651 156.95C266.426 156.579 266.099 156.28 265.709 156.088L265.364 155.916L265.696 155.717C266.069 155.492 266.371 155.165 266.565 154.775L266.737 154.423Z" fill="#6B4B3E"/>
<path d="M142.973 12.398L143.172 12.7296C143.393 13.1012 143.715 13.4025 144.1 13.5985L144.445 13.771L144.114 13.97C143.742 14.1952 143.443 14.522 143.251 14.9119L143.079 15.2568L142.873 14.9251C142.651 14.5519 142.326 14.2503 141.938 14.0562L141.586 13.8838L141.918 13.6848C142.288 13.4597 142.585 13.1327 142.774 12.7429L142.973 12.398Z" fill="#6B4B3E"/>
<path d="M115.207 193.306L115.406 193.637C115.631 194.011 115.958 194.312 116.348 194.506L116.693 194.679L116.361 194.878C115.99 195.103 115.69 195.43 115.499 195.82L115.326 196.164L115.127 195.833C114.901 195.461 114.575 195.16 114.186 194.964L113.834 194.791L114.166 194.592C114.54 194.369 114.842 194.042 115.035 193.651L115.207 193.306Z" fill="#6B4B3E"/>
<path d="M212.805 242.277L130.556 242.085C127.146 242.085 124.387 239.677 124.394 236.725C124.394 233.78 127.173 231.419 130.582 231.419L212.831 231.611C216.24 231.611 218.993 234.012 218.986 236.964C218.98 239.896 216.214 242.283 212.805 242.277Z" fill="#455A64"/>
<path d="M212.805 229.303L130.556 229.117C127.146 229.117 124.387 226.709 124.394 223.758C124.394 220.806 127.173 218.451 130.582 218.451L212.831 218.637C216.24 218.637 218.993 221.045 218.986 223.996C218.98 226.928 216.214 229.309 212.805 229.303Z" fill="#455A64"/>
<path d="M209.501 244.214L134.204 244.041C132.775 244.139 131.437 244.776 130.46 245.822C129.483 246.869 128.94 248.247 128.94 249.679C128.94 251.111 129.483 252.49 130.46 253.536C131.437 254.583 132.775 255.219 134.204 255.317H142.469L153.386 276.258C154.002 277.428 154.924 278.409 156.053 279.096C157.183 279.783 158.478 280.15 159.801 280.158L186.71 280.217C188.047 280.222 189.359 279.857 190.501 279.163C191.644 278.468 192.572 277.472 193.184 276.284L203.89 255.503H209.508C210.936 255.405 212.274 254.768 213.252 253.722C214.229 252.675 214.772 251.297 214.772 249.865C214.772 248.433 214.229 247.055 213.252 246.008C212.274 244.962 210.936 244.325 209.508 244.227L209.501 244.214Z" fill="#455A64"/>
<path d="M235.363 156.605C235.363 156.605 235.158 156.924 234.753 157.514L232.962 160.167L231.655 162.131C231.178 162.854 230.707 163.683 230.163 164.558L228.438 167.411C227.808 168.419 227.264 169.566 226.614 170.727C226.296 171.324 225.951 171.934 225.633 172.558C225.467 172.876 225.301 173.221 225.129 173.513C224.956 173.805 224.817 174.176 224.658 174.514C223.994 175.874 223.331 177.294 222.668 178.786L220.718 183.555C220.101 185.233 219.491 186.998 218.86 188.822C217.583 192.756 216.54 196.763 215.736 200.821C214.83 205.397 214.385 210.052 214.41 214.717V214.83H214.304L126.516 214.876H126.377V214.737C125.455 204.462 122.776 194.422 118.457 185.054C116.196 180.086 113.587 175.282 110.65 170.681C109.164 168.339 107.586 166.038 105.908 163.776C104.229 161.514 102.399 159.358 100.601 157.143L100.382 156.877H100.734L100.608 157.143C92.3847 146.569 86.7737 134.204 84.231 121.053C83.8729 119.368 83.654 117.657 83.3887 115.945C83.2825 115.083 83.2029 114.221 83.1101 113.358L82.9774 112.032L82.8912 110.705C82.8448 109.836 82.7652 108.967 82.7386 108.092C82.7121 107.216 82.7386 106.341 82.6856 105.439C82.6325 104.537 82.6856 103.688 82.6856 102.785C82.6856 101.883 82.6856 101.021 82.7652 100.132C83.1667 93.0154 84.4364 85.9743 86.546 79.1655C92.6698 59.9632 105.376 43.5389 122.424 32.7877C126.485 30.2284 130.751 28.0098 135.179 26.1548C139.527 24.3466 144.02 22.9109 148.611 21.8632C157.508 19.8136 166.675 19.1978 175.766 20.0392C180.139 20.4533 184.476 21.1916 188.74 22.2479C192.883 23.3148 196.946 24.6713 200.898 26.3073C204.713 27.9499 208.416 29.8422 211.982 31.9719C215.409 34.0791 218.695 36.4078 221.819 38.9431C227.723 43.7964 232.954 49.4154 237.373 55.6516C241.457 61.3996 244.8 67.6396 247.323 74.2239C247.986 75.776 248.444 77.3679 248.987 78.92C249.531 80.4722 249.89 82.0508 250.314 83.5631C250.666 85.1285 251.05 86.6607 251.355 88.2062C251.488 88.9756 251.627 89.7318 251.76 90.4879C251.893 91.2441 252.039 91.9936 252.118 92.7498C252.936 98.3905 253.192 104.099 252.881 109.79C252.34 118.931 250.324 127.924 246.911 136.421C245.662 139.508 244.24 142.522 242.653 145.449C241.247 147.983 239.96 150.092 238.859 151.71L237.393 153.866L236.265 155.372L235.343 156.605L236.232 155.372L237.347 153.839L238.806 151.67C239.894 150.026 241.167 147.936 242.56 145.402C244.134 142.471 245.545 139.455 246.785 136.368C252.261 122.525 254.029 107.492 251.913 92.7564C251.833 92.0003 251.687 91.2574 251.554 90.5012C251.422 89.745 251.282 88.9889 251.143 88.2261C250.845 86.7005 250.48 85.1749 250.102 83.583C249.724 81.9911 249.253 80.4854 248.775 78.9399C248.298 77.3945 247.767 75.8025 247.11 74.2571C244.588 67.6976 241.245 61.4839 237.161 55.7643C232.747 49.5618 227.528 43.9742 221.64 39.1487C218.521 36.6296 215.244 34.3122 211.83 32.2107C208.276 30.0894 204.584 28.208 200.779 26.5793C196.841 24.9509 192.794 23.6011 188.667 22.5398C184.417 21.4847 180.093 20.7508 175.733 20.3443C166.677 19.5085 157.545 20.1265 148.684 22.175C144.111 23.2183 139.635 24.6495 135.305 26.4532C130.895 28.3094 126.646 30.528 122.603 33.0862C105.601 43.8317 92.9471 60.2427 86.8776 79.4175C84.7757 86.2005 83.5105 93.2149 83.1101 100.305C83.0637 101.18 83.057 102.056 83.0305 102.958C83.004 103.86 82.9575 104.702 82.9973 105.578C83.0371 106.454 83.0305 107.322 83.0504 108.191C83.0703 109.06 83.1499 109.929 83.2029 110.791L83.2825 112.118L83.4152 113.445C83.5081 114.3 83.5943 115.163 83.7004 116.018C83.9591 117.723 84.178 119.428 84.5295 121.106C87.06 134.205 92.646 146.522 100.833 157.056L101.046 157.328H100.701L100.833 157.056C102.644 159.252 104.508 161.401 106.14 163.689C107.771 165.978 109.403 168.273 110.889 170.621C113.837 175.232 116.45 180.049 118.709 185.034C123.048 194.435 125.741 204.511 126.669 214.823L126.523 214.684L214.31 214.73L214.204 214.843C214.192 210.166 214.65 205.499 215.571 200.914C216.37 196.846 217.407 192.828 218.675 188.881C219.338 187.057 219.928 185.293 220.552 183.615C221.175 181.937 221.878 180.365 222.542 178.839C223.205 177.314 223.915 175.927 224.532 174.574L225.003 173.573L225.513 172.617C225.852 171.994 226.177 171.384 226.502 170.787C227.165 169.613 227.709 168.465 228.339 167.47L230.077 164.625C230.621 163.749 231.098 162.92 231.583 162.204C232.067 161.487 232.518 160.837 232.909 160.26L234.727 157.607L235.39 156.712L235.363 156.605Z" fill="#263238"/>
<path d="M94.8372 133.344C94.8036 133.286 94.779 133.223 94.7642 133.158C94.7112 133.012 94.6515 132.826 94.5719 132.594C94.3994 132.077 94.1673 131.354 93.8688 130.432L93.3647 128.866C93.1988 128.289 93.0529 127.652 92.8805 126.976C92.5488 125.61 92.1044 124.071 91.8192 122.333C91.66 121.464 91.4942 120.555 91.3151 119.607C91.136 118.658 91.0564 117.657 90.9171 116.622C90.6054 114.566 90.5059 112.35 90.3533 109.989C90.1555 104.921 90.3773 99.8444 91.0166 94.8126C91.7343 89.7913 92.8635 84.8375 94.3928 80.0012C95.1622 77.7924 95.852 75.6832 96.7011 73.7795C97.1123 72.8243 97.4639 71.8825 97.8817 71.0135L99.0956 68.5195C99.8318 66.9144 100.674 65.548 101.351 64.3209C101.702 63.7173 102.014 63.1402 102.326 62.6295L103.228 61.2498L104.482 59.3528L104.813 58.8686C104.893 58.7558 104.933 58.7028 104.939 58.7094C104.946 58.716 104.939 58.7691 104.846 58.8885L104.541 59.3926L103.341 61.3228L102.465 62.7091C102.16 63.2264 101.862 63.8101 101.523 64.4204C100.86 65.6541 100.031 67.0205 99.3144 68.6323L98.1205 71.1263C97.7159 71.9952 97.371 72.9371 96.9664 73.8923C96.1306 75.7893 95.4541 77.872 94.6979 80.1007C93.1991 84.9235 92.0901 89.8588 91.3814 94.8591C90.7403 99.8708 90.5029 104.926 90.6717 109.976C90.8176 112.297 90.9038 114.513 91.2023 116.562C91.335 117.59 91.4146 118.592 91.5804 119.54C91.7462 120.489 91.9054 121.391 92.0646 122.26C92.3233 124.004 92.7279 125.576 93.0662 126.903C93.232 127.566 93.3713 128.23 93.5239 128.8C93.6764 129.37 93.8555 129.894 93.9948 130.372C94.2668 131.301 94.4857 132.03 94.6581 132.548L94.8173 133.118C94.8355 133.192 94.8422 133.268 94.8372 133.344Z" fill="#263238"/>
<path d="M120.175 44.0638C118.731 45.5348 117.208 46.9253 115.612 48.2293C114.09 49.6229 112.488 50.9273 110.816 52.1361C112.261 50.6642 113.787 49.2735 115.386 47.9706C116.907 46.5786 118.506 45.2742 120.175 44.0638Z" fill="#263238"/>
<path d="M236.299 142.968C236.299 142.968 236.299 142.915 236.358 142.815L236.557 142.384L237.347 140.753L237.924 139.579C238.129 139.147 238.328 138.663 238.587 138.152C239.025 137.124 239.575 135.977 240.059 134.657L240.855 132.594C241.127 131.878 241.36 131.115 241.625 130.332C242.182 128.773 242.64 127.069 243.15 125.278C244.172 121.379 244.938 117.417 245.445 113.418C245.904 109.411 246.106 105.379 246.049 101.346C245.976 99.4889 245.943 97.7179 245.77 96.0397C245.698 95.2173 245.651 94.4213 245.558 93.6585C245.465 92.8957 245.366 92.1661 245.28 91.4696C245.127 90.0701 244.868 88.8164 244.689 87.722C244.59 87.1715 244.51 86.6541 244.417 86.1831C244.324 85.7122 244.218 85.2943 244.132 84.9096L243.754 83.132C243.721 82.9463 243.688 82.7937 243.668 82.6677C243.659 82.615 243.659 82.5612 243.668 82.5085C243.69 82.5576 243.708 82.6087 243.721 82.661C243.754 82.7871 243.794 82.933 243.84 83.1187C243.953 83.5499 244.099 84.1336 244.285 84.8764L244.596 86.15C244.703 86.6209 244.789 87.1317 244.895 87.6822C245.094 88.7833 245.372 90.0369 245.558 91.4365L245.863 93.6253C245.963 94.3948 246.016 95.1907 246.095 96.0198C246.281 97.6648 246.328 99.4425 246.407 101.326C246.611 109.433 245.633 117.526 243.502 125.351C242.978 127.142 242.507 128.853 241.937 130.412C241.658 131.194 241.426 131.957 241.141 132.674L240.325 134.73C239.827 136.056 239.264 137.197 238.806 138.219C238.567 138.73 238.361 139.207 238.143 139.638L237.532 140.799L236.683 142.404L236.458 142.815C236.415 142.876 236.361 142.928 236.299 142.968Z" fill="#263238"/>
<path d="M208.772 61.7672C204.235 59.1671 199.486 56.7991 194.385 55.6715C193.677 55.4778 192.94 55.4149 192.209 55.4858C191.845 55.5277 191.496 55.6553 191.19 55.8582C190.885 56.0611 190.631 56.3336 190.452 56.6532C190.014 57.5619 190.451 58.6431 190.989 59.4854C192.216 61.3427 194.053 62.6892 195.904 63.9163C200.978 67.2792 206.424 70.0186 211.823 72.7514C211.16 68.8777 209.78 65.5546 208.739 61.7672" fill="#6B4B3E"/>
<path d="M243.555 71.7631C245.041 76.7776 246.825 81.7656 249.73 86.1102C250.109 86.7412 250.602 87.2966 251.183 87.7485C251.474 87.9729 251.814 88.1239 252.176 88.1885C252.537 88.2532 252.909 88.2297 253.259 88.12C254.201 87.7684 254.652 86.6939 254.824 85.7056C255.222 83.5167 254.824 81.2681 254.34 79.1058C253.014 73.1361 250.957 67.4251 248.921 61.6942C246.739 64.9643 245.419 68.3272 243.555 71.7631Z" fill="#6B4B3E"/>
<path d="M208.705 61.6611C208.705 61.6611 209.057 96.3847 228.545 97.0679C248.032 97.7511 248.848 61.9131 248.848 61.6611C248.848 61.6611 246.547 56.4873 228.777 56.6863C211.007 56.8853 208.705 61.6611 208.705 61.6611Z" fill="#6B4B3E"/>
<path d="M234.587 75.451C234.491 76.7766 234.003 78.0437 233.186 79.092C232.369 80.1404 231.259 80.9229 229.998 81.3407C228.736 81.7584 227.379 81.7925 226.097 81.4388C224.816 81.085 223.669 80.3592 222.8 79.3533C221.932 78.3473 221.381 77.1063 221.218 75.7873C221.054 74.4682 221.286 73.1304 221.883 71.943C222.48 70.7556 223.416 69.772 224.572 69.1166C225.729 68.4611 227.053 68.1633 228.379 68.2608C230.155 68.3915 231.807 69.2223 232.972 70.5706C234.136 71.9189 234.717 73.6743 234.587 75.451Z" fill="#263238"/>
<path d="M232.77 75.3183C232.699 76.2839 232.343 77.2068 231.748 77.9703C231.153 78.7338 230.344 79.3037 229.425 79.6077C228.506 79.9118 227.517 79.9365 226.584 79.6786C225.651 79.4208 224.815 78.892 224.182 78.1591C223.55 77.4263 223.149 76.5222 223.03 75.5614C222.911 74.6005 223.08 73.626 223.515 72.761C223.95 71.8961 224.631 71.1795 225.473 70.702C226.316 70.2245 227.281 70.0074 228.246 70.0783C229.54 70.175 230.743 70.781 231.591 71.7633C232.439 72.7455 232.863 74.024 232.77 75.3183Z" fill="white"/>
<path d="M230.408 76.2138C230.371 75.9457 230.356 75.6751 230.362 75.4046C230.362 74.8938 230.362 74.1775 230.362 73.2953L230.415 73.3882L227.875 71.9223H228.014L225.474 73.3483C225.407 73.4677 225.566 73.1958 225.553 73.2223V73.9718C225.553 74.2173 225.553 74.4693 225.553 74.7147C225.553 75.199 225.553 75.6699 225.553 76.1276L225.487 76.0015L227.974 77.5205H227.861C228.637 77.1026 229.281 76.771 229.732 76.5388C229.965 76.406 230.209 76.2928 230.462 76.2005C230.253 76.3585 230.031 76.4983 229.798 76.6184C229.374 76.8771 228.737 77.2817 227.941 77.7128L227.888 77.746L227.835 77.7128L225.314 76.247L225.241 76.2072V76.1209C225.241 75.6633 225.241 75.1923 225.241 74.7081C225.241 74.4627 225.241 74.2173 225.241 73.9652V73.2489C225.241 73.2489 225.387 73.0034 225.314 73.1162L227.868 71.7034L227.941 71.6636L228.007 71.7034L230.495 73.229H230.554V73.2887C230.554 74.204 230.501 74.9403 230.475 75.4444C230.477 75.7023 230.454 75.9599 230.408 76.2138Z" fill="#6B4B3E"/>
<path d="M208.619 61.6345C208.619 61.6345 208.659 61.6345 208.725 61.6345L209.017 61.734L210.151 62.132L210.961 62.4238L211.949 62.729C212.652 62.9412 213.448 63.2132 214.357 63.3923L215.77 63.7504C216.26 63.8765 216.778 63.9693 217.315 64.0821C218.376 64.3275 219.537 64.4933 220.744 64.6923C226.023 65.4516 231.384 65.4516 236.663 64.6923C237.877 64.5 239.031 64.3341 240.093 64.0887C240.63 63.9693 241.147 63.8765 241.638 63.7571L243.051 63.3923C243.96 63.18 244.756 62.9081 245.465 62.729C245.817 62.6228 246.129 62.53 246.447 62.4305L247.263 62.1386L248.391 61.7406L248.682 61.6412L248.788 61.608C248.788 61.608 248.755 61.608 248.689 61.6544L248.397 61.7672L247.276 62.1851L246.467 62.4902C246.168 62.5963 245.804 62.6892 245.485 62.8086C244.782 63.0208 243.986 63.2994 243.077 63.5183L241.665 63.8897C241.174 64.0158 240.656 64.1153 240.119 64.2346C239.051 64.4801 237.897 64.6525 236.683 64.8515C231.39 65.6297 226.011 65.6297 220.718 64.8515C219.497 64.6525 218.343 64.4801 217.275 64.228C216.745 64.1152 216.221 64.0158 215.73 63.8897L214.317 63.5183C213.408 63.2994 212.619 63.0208 211.909 62.8019L210.927 62.4902L210.118 62.1851L208.997 61.7605L208.705 61.6478L208.619 61.6345Z" fill="#263238"/>
<g opacity="0.3">
<path d="M208.705 61.6611C208.705 61.6611 211.007 56.8919 228.777 56.6863C246.547 56.4807 248.848 61.6611 248.848 61.6611C248.848 61.6611 230.926 70.5028 208.705 61.6611Z" fill="black"/>
</g>
<path d="M214.814 86.3755C214.801 86.3594 214.79 86.3416 214.781 86.3224L214.695 86.1699L214.37 85.5596L214.144 85.1219L213.892 84.5846C213.713 84.1999 213.514 83.7621 213.315 83.258L212.997 82.4819L212.685 81.6329C212.453 81.0492 212.261 80.4058 212.022 79.7359C211.604 78.4093 211.199 76.8904 210.841 75.2984C210.483 73.7065 210.224 72.1809 210.012 70.7814C209.8 69.3818 209.661 68.1282 209.581 67.0603C209.528 66.5296 209.495 66.0521 209.468 65.6276C209.442 65.2031 209.422 64.8382 209.409 64.5398V63.8765V63.631C209.409 63.631 209.409 63.631 209.409 63.6974V63.8698C209.409 64.0423 209.409 64.2678 209.462 64.5331C209.515 64.7984 209.501 65.1964 209.541 65.6143C209.581 66.0322 209.614 66.5164 209.667 67.047C209.767 68.1083 209.933 69.3619 210.131 70.7615C210.33 72.161 210.622 73.6734 210.967 75.2653C211.312 76.8572 211.73 78.343 212.135 79.6895C212.36 80.3528 212.546 81.0161 212.798 81.5865L213.103 82.4422L213.415 83.2182C213.601 83.7157 213.8 84.1535 213.972 84.5448L214.211 85.0887L214.43 85.5331L214.728 86.15L214.801 86.3092L214.814 86.3755Z" fill="white"/>
<path d="M224.207 94.7264C224.102 94.7228 223.997 94.7095 223.895 94.6866C223.614 94.6419 223.337 94.5754 223.066 94.4876C222.662 94.3667 222.267 94.2159 221.885 94.0366C221.423 93.8108 220.98 93.5491 220.559 93.2539C220.137 92.9545 219.74 92.6218 219.371 92.2589C219.071 91.9602 218.793 91.6387 218.542 91.2972C218.37 91.0726 218.215 90.8353 218.078 90.5874C218.02 90.4999 217.971 90.4065 217.932 90.3089C217.932 90.3089 218.177 90.6803 218.595 91.2375C218.854 91.5644 219.133 91.8746 219.431 92.1661C219.801 92.5191 220.195 92.845 220.612 93.1411C221.033 93.4336 221.477 93.6931 221.938 93.9172C222.312 94.1008 222.698 94.2603 223.092 94.3948C223.769 94.6203 224.207 94.6999 224.207 94.7264Z" fill="white"/>
<path d="M228.266 82.4753H228.08C227.961 82.4753 227.775 82.4753 227.543 82.4753C226.886 82.4641 226.234 82.3591 225.606 82.1636C224.667 81.879 223.791 81.4174 223.026 80.8038C222.071 80.0661 221.319 79.0994 220.837 77.9932C220.356 76.887 220.162 75.6772 220.273 74.476C220.317 73.9532 220.41 73.4357 220.552 72.9305C220.682 72.496 220.846 72.0724 221.043 71.6636C221.331 71.0685 221.702 70.517 222.144 70.0252C222.261 69.8929 222.385 69.7667 222.515 69.6471C222.608 69.5609 222.655 69.5211 222.661 69.5277C222.668 69.5344 222.482 69.7135 222.184 70.065C221.761 70.5604 221.408 71.1117 221.136 71.7034C220.943 72.1094 220.786 72.531 220.665 72.9636C220.531 73.4606 220.444 73.9692 220.406 74.4826C220.3 75.6627 220.491 76.8506 220.963 77.9375C221.434 79.0245 222.171 79.9758 223.106 80.7043C223.508 81.0252 223.939 81.3093 224.392 81.5533C224.793 81.7553 225.207 81.9282 225.633 82.0707C226.254 82.2692 226.898 82.3874 227.55 82.4222C228.007 82.4753 228.266 82.462 228.266 82.4753Z" fill="white"/>
<path d="M227.424 25.5578C227.424 25.5578 210.43 25.3522 207.777 40.084C205.124 54.8158 219.457 55.0679 223.59 55.3398C225.467 55.4659 229.473 55.4791 233.009 55.4128C240.842 55.2801 246.374 53.7612 248.264 46.4981C248.49 45.6448 248.632 44.7719 248.689 43.8913C249.147 35.9317 243.754 25.1664 227.424 25.5578Z" fill="#6B4B3E"/>
<path d="M239.748 47.9706L215.066 48.3553C214.449 48.365 213.835 48.2523 213.261 48.0237C212.687 47.7952 212.164 47.4554 211.722 47.0238C211.28 46.5922 210.928 46.0774 210.685 45.509C210.443 44.9407 210.316 44.33 210.311 43.7122C210.291 42.4696 210.766 41.27 211.63 40.377C212.494 39.484 213.678 38.9707 214.92 38.9498L239.615 38.5982C240.233 38.5894 240.846 38.7027 241.42 38.9314C241.994 39.1602 242.518 39.5 242.96 39.9313C243.402 40.3626 243.755 40.877 243.999 41.445C244.242 42.013 244.371 42.6234 244.378 43.2413C244.388 44.4816 243.907 45.6756 243.039 46.562C242.172 47.4484 240.988 47.9548 239.748 47.9706Z" fill="#263238"/>
<path d="M220.187 43.2347C220.13 43.5273 219.987 43.7964 219.777 44.0079C219.567 44.2194 219.299 44.3637 219.006 44.4225C218.714 44.4813 218.411 44.452 218.135 44.3383C217.859 44.2245 217.624 44.0316 217.458 43.7837C217.292 43.5359 217.204 43.2444 217.204 42.9463C217.204 42.6481 217.292 42.3566 217.458 42.1088C217.624 41.861 217.86 41.6681 218.135 41.5544C218.411 41.4407 218.714 41.4114 219.006 41.4703C219.396 41.5488 219.739 41.7784 219.961 42.109C220.182 42.4396 220.263 42.8443 220.187 43.2347Z" fill="white"/>
<path d="M237.433 42.9561C237.376 43.2486 237.234 43.5176 237.024 43.7292C236.814 43.9408 236.546 44.0854 236.254 44.1446C235.962 44.2039 235.659 44.1752 235.384 44.0622C235.108 43.9491 234.872 43.7569 234.706 43.5097C234.539 43.2625 234.45 42.9715 234.449 42.6735C234.448 42.3755 234.536 42.084 234.701 41.8358C234.866 41.5877 235.1 41.394 235.375 41.2793C235.65 41.1647 235.953 41.1342 236.246 41.1917C236.637 41.2687 236.981 41.4977 237.204 41.8284C237.427 42.1592 237.509 42.5647 237.433 42.9561Z" fill="white"/>
<path d="M224.512 42.5382C224.625 42.5382 224.565 43.0755 224.896 43.7786C225.087 44.1791 225.358 44.5359 225.692 44.8266C226.089 45.1727 226.582 45.3901 227.105 45.4501C227.632 45.4884 228.158 45.3634 228.611 45.0919C228.994 44.8666 229.326 44.5639 229.586 44.2031C230.037 43.5729 230.077 43.0489 230.19 43.0556C230.302 43.0622 230.276 43.1882 230.276 43.4403C230.261 43.7944 230.168 44.1409 230.004 44.4551C229.758 44.9296 229.395 45.3336 228.949 45.6292C228.39 46.0081 227.719 46.188 227.046 46.1399C226.373 46.0683 225.746 45.7687 225.268 45.2909C224.883 44.9269 224.597 44.4701 224.439 43.9643C224.331 43.626 224.301 43.2676 224.353 42.9163C224.399 42.651 224.465 42.5316 224.512 42.5382Z" fill="white"/>
<path d="M225.275 26.6589H225.215H225.036C224.877 26.6589 224.644 26.6589 224.372 26.7119C223.528 26.7958 222.691 26.9354 221.865 27.1298C220.641 27.4196 219.45 27.833 218.31 28.3635C216.911 29.0179 215.6 29.847 214.41 30.831C212.255 32.6324 210.537 34.9007 209.389 37.464C209.04 38.2365 208.745 39.0321 208.506 39.8452C208.414 40.1371 208.367 40.3626 208.321 40.5085L208.268 40.681V40.7407C208.268 40.7407 208.268 40.7407 208.268 40.681L208.307 40.5019C208.341 40.3493 208.38 40.1172 208.467 39.8386C208.676 39.0168 208.946 38.212 209.276 37.4308C209.777 36.2619 210.402 35.1501 211.14 34.1143C213.707 30.5279 217.507 28.0149 221.812 27.0568C222.651 26.87 223.502 26.7458 224.359 26.6854C224.658 26.6854 224.897 26.6854 225.023 26.6854H225.261L225.275 26.6589Z" fill="white"/>
<path d="M208.652 47.042C208.543 46.8791 208.46 46.7 208.407 46.5114C208.253 46.0803 208.137 45.6363 208.062 45.1848C207.992 44.7217 207.963 44.2533 207.976 43.7852C207.972 43.5907 207.994 43.3967 208.042 43.2081C208.089 43.2081 208.042 44.0969 208.201 45.198C208.361 46.2991 208.692 47.0287 208.652 47.042Z" fill="white"/>
<path d="M235.668 37.7359C235.668 37.7757 232.418 37.8089 228.412 37.8089C224.406 37.8089 221.149 37.8089 221.149 37.7359C221.149 37.663 224.399 37.6696 228.412 37.6696C232.425 37.6696 235.668 37.7028 235.668 37.7359Z" fill="white"/>
<path d="M223.278 54.2918C223.278 54.2918 223.238 54.2918 223.159 54.2918H222.807C222.648 54.2918 222.462 54.2918 222.243 54.2918C222.024 54.2918 221.772 54.2918 221.494 54.2918C220.847 54.2864 220.2 54.2465 219.557 54.1724C218.77 54.0809 217.988 53.9458 217.216 53.7678C216.445 53.5925 215.685 53.371 214.94 53.1045C214.333 52.8845 213.737 52.6321 213.156 52.3484C212.904 52.229 212.685 52.1096 212.493 52.0034C212.3 51.8973 212.135 51.8111 212.002 51.7315L211.697 51.5458L211.597 51.4728C211.597 51.4728 211.637 51.4728 211.71 51.5192L212.029 51.6784C212.161 51.7514 212.327 51.8443 212.526 51.9371C212.725 52.03 212.944 52.1494 213.189 52.2555C213.687 52.4877 214.29 52.7397 214.974 52.9851C215.718 53.2446 216.475 53.466 217.242 53.6484C218.01 53.8257 218.788 53.963 219.57 54.0597C220.287 54.1459 220.943 54.1923 221.494 54.2056C221.766 54.2056 222.018 54.2056 222.237 54.2056H223.271L223.278 54.2918Z" fill="white"/>
<path d="M244.053 63.7836H243.993L243.8 63.8566L243.064 64.1219C242.746 64.2346 242.354 64.3673 241.89 64.5066C241.426 64.6459 240.902 64.8183 240.318 64.9643L239.396 65.2097L238.388 65.4418C237.725 65.6077 236.942 65.7403 236.153 65.8929C234.433 66.1836 232.699 66.3873 230.959 66.5031C229.22 66.5921 227.478 66.5921 225.739 66.5031C224.936 66.4501 224.174 66.4103 223.464 66.3307L222.436 66.2245L221.487 66.0919C220.884 66.0189 220.346 65.9128 219.869 65.8332C219.391 65.7536 218.987 65.6674 218.655 65.5944L217.892 65.4219L217.693 65.3755H217.627C217.627 65.3755 217.627 65.3755 217.7 65.3755L217.899 65.4087L218.668 65.5546C219 65.6209 219.404 65.7005 219.882 65.7669C220.36 65.8332 220.897 65.9459 221.5 66.0123L222.449 66.1317C222.774 66.1715 223.112 66.198 223.47 66.2312C224.18 66.3041 224.943 66.3439 225.739 66.3904C227.344 66.4567 229.108 66.4567 230.952 66.3506C232.796 66.2444 234.547 66.0123 236.126 65.7536C236.915 65.6077 237.665 65.4816 238.361 65.3158C238.706 65.2362 239.025 65.1699 239.37 65.0903L240.292 64.8581C240.882 64.7188 241.406 64.553 241.864 64.4204C242.321 64.2877 242.726 64.1617 243.051 64.0555L243.794 63.8168L243.986 63.7571L244.053 63.7836Z" fill="white"/>
<path d="M82.6591 177.957L82.7055 187.157C82.7055 187.157 97.9613 178.534 93.4907 170.276L82.6591 177.957Z" fill="#6B4B3E"/>
<path d="M84.1448 156.705C84.1448 156.705 73.1275 152.679 64.7964 160.141L73.3662 164.976L84.1448 156.705Z" fill="#6B4B3E"/>
<path d="M73.3663 165.003C73.7112 165.454 82.6524 177.957 82.6524 177.957L106.014 161.375C106.976 160.693 107.786 159.82 108.394 158.809C109.001 157.799 109.393 156.674 109.544 155.505C109.695 154.335 109.602 153.148 109.27 152.016C108.939 150.885 108.377 149.834 107.619 148.931C106.201 147.255 104.192 146.19 102.01 145.957C99.8272 145.723 97.6386 146.339 95.8985 147.677L73.3663 165.003Z" fill="#F5F5F5"/>
<path d="M73.3663 165.003C73.4233 164.944 73.4855 164.891 73.552 164.844L74.1357 164.373L76.4174 162.588L84.8811 155.995L90.7513 151.445L94.028 148.911L95.7459 147.585C96.3437 147.127 96.9966 146.745 97.6894 146.45C98.0408 146.296 98.402 146.166 98.7705 146.059C99.1458 145.96 99.5268 145.885 99.9114 145.833C100.694 145.721 101.49 145.721 102.273 145.833C103.899 146.053 105.43 146.731 106.684 147.79C107.325 148.331 107.886 148.961 108.349 149.661C108.815 150.374 109.178 151.148 109.43 151.962C109.919 153.647 109.896 155.438 109.363 157.11C108.852 158.706 107.886 160.119 106.584 161.176C105.258 162.17 103.977 163.039 102.704 163.961L95.328 169.175L82.7254 178.063L82.6192 178.136L82.5463 178.037C79.7007 174.017 77.3925 170.74 75.7807 168.485L73.9699 165.898L73.5055 165.235C73.4501 165.164 73.4013 165.089 73.3596 165.009C73.4239 165.083 73.4837 165.161 73.5387 165.242C73.6647 165.401 73.8306 165.626 74.0428 165.905L75.9199 168.472L82.7519 177.884H82.5795L95.1357 168.936C97.4904 167.271 99.9512 165.52 102.498 163.709C103.765 162.794 105.098 161.905 106.359 160.937C107.603 159.919 108.524 158.562 109.012 157.03C109.522 155.425 109.542 153.705 109.072 152.088C108.833 151.305 108.485 150.559 108.037 149.873C107.381 148.879 106.522 148.036 105.516 147.4C104.509 146.764 103.379 146.35 102.2 146.185C101.448 146.076 100.684 146.076 99.9313 146.185C99.5601 146.232 99.1923 146.303 98.8302 146.397C98.4747 146.496 98.1267 146.62 97.7889 146.769C96.4158 147.319 95.3413 148.334 94.2004 149.17L90.937 151.664L85.0668 156.121L76.5235 162.615L74.1821 164.386L73.5586 164.844L73.3663 165.003Z" fill="#263238"/>
<path d="M84.5627 164.286L69.9702 174.786C69.9702 174.786 70.6335 176.385 70.9983 176.226C71.3631 176.067 82.334 168.598 85.8959 166.17C86.0328 166.076 86.1478 165.954 86.2331 165.812C86.3184 165.669 86.372 165.51 86.3903 165.345C86.4086 165.18 86.391 165.013 86.3389 164.856C86.2868 164.698 86.2013 164.554 86.0883 164.432C85.8967 164.224 85.635 164.094 85.3534 164.067C85.0719 164.04 84.7903 164.118 84.5627 164.286Z" fill="#6B4B3E"/>
<path d="M99.7058 157.693C99.7682 158.657 99.5433 159.618 99.0595 160.454C98.5758 161.29 97.8549 161.963 96.9882 162.389C96.1215 162.816 95.1479 162.975 94.1905 162.848C93.2331 162.72 92.335 162.312 91.6098 161.674C90.8846 161.036 90.3649 160.197 90.1165 159.264C89.8681 158.331 89.9021 157.345 90.2142 156.431C90.5264 155.517 91.1026 154.716 91.87 154.129C92.6375 153.543 93.5616 153.197 94.5255 153.136C95.8165 153.055 97.0872 153.489 98.0585 154.343C99.0298 155.197 99.6223 156.402 99.7058 157.693Z" fill="white"/>
<path d="M99.7058 157.693C99.7058 157.693 99.6593 157.262 99.4139 156.539C99.062 155.514 98.378 154.637 97.4704 154.045C96.8068 153.612 96.0451 153.351 95.255 153.287C94.4648 153.224 93.6713 153.359 92.9468 153.68C92.0591 154.074 91.3131 154.73 90.8092 155.56C90.3052 156.39 90.0674 157.354 90.1277 158.323C90.2001 159.324 90.5827 160.277 91.2222 161.05C91.7918 161.735 92.5435 162.246 93.3909 162.523C94.2382 162.8 95.1465 162.832 96.0112 162.615C96.7295 162.44 97.3958 162.097 97.9546 161.613C98.783 160.914 99.351 159.956 99.5665 158.894C99.6329 158.501 99.6794 158.104 99.7058 157.706C99.7358 157.808 99.7492 157.913 99.7455 158.018C99.7664 158.32 99.7486 158.623 99.6925 158.92C99.5424 159.863 99.1205 160.742 98.4784 161.449C97.8363 162.156 97.0019 162.66 96.0775 162.9C95.1613 163.142 94.1953 163.118 93.2921 162.832C92.3889 162.545 91.5859 162.007 90.9768 161.282C90.2858 160.461 89.8746 159.441 89.8027 158.37C89.7384 157.337 89.9935 156.309 90.5334 155.426C91.0734 154.543 91.872 153.848 92.8207 153.435C93.6459 153.082 94.5499 152.954 95.4407 153.063C96.3851 153.187 97.2741 153.579 98.0011 154.194C98.7281 154.81 99.2623 155.621 99.5399 156.532C99.632 156.818 99.6878 157.115 99.7058 157.415C99.7198 157.507 99.7198 157.601 99.7058 157.693Z" fill="#263238"/>
<path d="M107.108 160.479C114.955 153.143 113.555 144.646 113.555 144.646C103.002 141.874 95.8785 147.677 95.8785 147.677C102.903 148.666 106.664 152.917 107.108 160.479Z" fill="#6B4B3E"/>
<path d="M190.458 129.244L193.184 154.297L209.316 159.676L209.979 167.477L187.215 165.951C187.215 165.951 180.197 166.124 178.671 156.877L178.3 132.574L190.458 129.244Z" fill="#FFBE9D"/>
<path d="M223.935 167.344C223.791 167.514 223.6 167.637 223.386 167.696C223.172 167.755 222.944 167.748 222.734 167.676C222.642 167.648 222.555 167.605 222.475 167.55C221.905 167.192 222.296 165.938 222.296 165.938L219.457 164.671C219.457 164.671 214.927 166.144 213.116 167.43C211.306 168.717 208.148 166.455 208.148 166.455L208.606 159.822L215.385 156.32C215.385 156.32 214.974 156.526 215.597 155.697C216.221 154.868 217.846 155.697 217.846 155.697C218.23 155.312 219.398 155.445 219.398 155.445L224.041 157.262C224.512 157.449 224.935 157.739 225.279 158.111C225.624 158.483 225.88 158.927 226.031 159.411L227.211 163.159C227.211 163.159 227.676 165.759 227.364 166.25C227.229 166.455 227.023 166.603 226.785 166.666C226.548 166.728 226.296 166.7 226.077 166.588C226.077 166.588 225.414 168.041 225.023 167.994C224.617 167.864 224.239 167.659 223.908 167.391L223.935 167.344Z" fill="#FFBE9D"/>
<path d="M214.41 166.688C214.529 166.65 214.645 166.601 214.755 166.542L215.736 166.11C216.952 165.595 218.196 165.152 219.464 164.784H219.391L222.23 166.077L222.157 165.925C222.086 166.164 222.041 166.411 222.024 166.661C221.993 166.939 222.044 167.221 222.17 167.47C222.257 167.595 222.376 167.694 222.515 167.755C222.642 167.826 222.782 167.871 222.927 167.888C223.226 167.919 223.526 167.844 223.776 167.676C223.84 167.633 223.9 167.584 223.955 167.53L223.994 167.49H223.809L223.888 167.556L224.24 167.789C224.36 167.87 224.486 167.941 224.618 168.001C224.688 168.035 224.761 168.062 224.837 168.08C224.929 168.113 225.03 168.113 225.122 168.08C225.281 168.015 225.419 167.907 225.52 167.769C225.612 167.651 225.697 167.527 225.772 167.397C225.928 167.143 226.068 166.88 226.19 166.608L225.984 166.681C226.174 166.778 226.387 166.822 226.6 166.806C226.813 166.791 227.017 166.718 227.192 166.595C227.371 166.461 227.498 166.268 227.55 166.051C227.615 165.855 227.657 165.653 227.676 165.447C227.65 164.657 227.566 163.87 227.424 163.092C227.225 162.429 227.012 161.766 226.794 161.103C226.661 160.671 226.528 160.254 226.396 159.829C226.281 159.398 226.121 158.979 225.918 158.582C225.695 158.19 225.392 157.848 225.029 157.58C224.678 157.327 224.289 157.132 223.875 157.003L219.484 155.299H219.451C219.168 155.272 218.884 155.272 218.602 155.299C218.304 155.311 218.019 155.418 217.786 155.604H217.965C217.749 155.429 217.494 155.309 217.221 155.253C216.949 155.198 216.667 155.209 216.4 155.285C215.922 155.475 215.534 155.837 215.312 156.3L215.365 156.247L210.722 158.642L209.455 159.305C209.303 159.374 209.158 159.458 209.024 159.557C209.183 159.503 209.338 159.439 209.488 159.365L210.775 158.754L215.491 156.453H215.524V156.413C215.722 156.012 216.063 155.7 216.479 155.537C216.707 155.476 216.946 155.469 217.177 155.519C217.408 155.569 217.624 155.673 217.806 155.823L217.899 155.896L217.985 155.816C218.179 155.679 218.411 155.605 218.648 155.604C218.911 155.577 219.175 155.577 219.438 155.604H219.404L223.782 157.335C224.168 157.461 224.532 157.644 224.863 157.879C225.191 158.12 225.465 158.427 225.666 158.781C225.857 159.162 226.008 159.563 226.117 159.975C226.243 160.393 226.382 160.817 226.515 161.242C226.727 161.905 226.946 162.568 227.145 163.232C227.285 163.992 227.371 164.761 227.404 165.533C227.408 165.713 227.395 165.893 227.364 166.071C227.326 166.22 227.237 166.351 227.112 166.442C226.983 166.529 226.833 166.58 226.678 166.589C226.523 166.598 226.368 166.566 226.23 166.495L226.084 166.435L226.024 166.575C225.908 166.834 225.778 167.087 225.633 167.331C225.522 167.553 225.358 167.744 225.155 167.888C225.114 167.898 225.071 167.898 225.029 167.888C224.967 167.872 224.907 167.85 224.85 167.822C224.732 167.766 224.617 167.704 224.505 167.636C224.392 167.563 224.28 167.49 224.174 167.411L224.094 167.351C224.266 167.351 223.855 167.351 223.895 167.351L223.862 167.384C223.82 167.427 223.773 167.465 223.722 167.497C223.53 167.633 223.294 167.694 223.059 167.669C222.947 167.657 222.838 167.621 222.741 167.563C222.641 167.53 222.554 167.465 222.495 167.377C222.336 166.949 222.336 166.479 222.495 166.051V165.945L222.396 165.898L219.544 164.645H219.504H219.471C218.202 165.038 216.961 165.516 215.756 166.077C215.332 166.276 215.013 166.442 214.801 166.561C214.665 166.584 214.533 166.626 214.41 166.688Z" fill="#EB996E"/>
<path d="M218.21 157.554C218.639 157.911 219.117 158.204 219.63 158.423C220.864 159.028 222.17 159.474 223.517 159.749L223.384 159.604C223.384 159.856 223.424 160.128 223.457 160.406C223.651 161.958 224.142 163.458 224.903 164.824C225.13 165.236 225.387 165.631 225.673 166.004C225.878 166.27 226.004 166.402 226.017 166.389C226.031 166.376 225.633 165.766 225.102 164.718C224.423 163.35 223.975 161.88 223.776 160.366C223.742 160.094 223.722 159.829 223.703 159.584V159.477H223.577C222.252 159.212 220.96 158.805 219.723 158.264C218.781 157.819 218.237 157.488 218.21 157.554Z" fill="#EB996E"/>
<path d="M222.031 161.56C221.949 163.626 222.686 165.64 224.081 167.165C224.16 167.112 223.371 166.004 222.814 164.452C222.257 162.9 222.131 161.547 222.031 161.56Z" fill="#EB996E"/>
<path d="M207.71 164.273C207.71 164.273 207.75 164.326 207.843 164.406C207.975 164.52 208.118 164.622 208.268 164.711C208.825 165.071 209.447 165.321 210.098 165.447C211.098 165.64 212.133 165.548 213.083 165.182C214.288 164.706 215.294 163.833 215.935 162.708L215.73 162.774C217.221 163.492 218.84 163.909 220.492 164.001C220.936 164.047 221.384 164.02 221.819 163.922C222.064 163.867 222.279 163.723 222.422 163.517C222.488 163.412 222.531 163.295 222.55 163.173C222.568 163.051 222.561 162.926 222.529 162.807C222.465 162.57 222.31 162.367 222.097 162.243L221.58 161.958C220.214 161.222 218.927 160.632 217.879 160.147C216.831 159.663 215.889 159.332 215.305 159.106C214.991 158.971 214.665 158.869 214.33 158.801C214.629 158.964 214.94 159.106 215.259 159.225C215.862 159.484 216.725 159.889 217.786 160.353C218.847 160.817 220.088 161.474 221.434 162.224L221.945 162.509C222.014 162.549 222.074 162.602 222.122 162.666C222.17 162.73 222.204 162.803 222.223 162.88C222.244 162.959 222.249 163.042 222.238 163.122C222.227 163.203 222.199 163.281 222.157 163.351C222.054 163.489 221.902 163.582 221.733 163.61C221.332 163.696 220.92 163.719 220.512 163.676C218.903 163.578 217.328 163.175 215.869 162.489L215.736 162.423L215.663 162.555C215.071 163.623 214.137 164.459 213.01 164.93C212.107 165.298 211.121 165.411 210.158 165.255C209.524 165.151 208.912 164.943 208.347 164.638C207.923 164.406 207.724 164.253 207.71 164.273Z" fill="#EB996E"/>
<path d="M227.172 257.891C227.219 257.686 227.219 257.472 227.172 257.267C227.075 256.699 226.86 256.156 226.542 255.675C226.438 255.506 226.311 255.352 226.163 255.218C226.071 255.131 225.957 255.07 225.834 255.042C225.71 255.014 225.581 255.02 225.46 255.059C225.388 255.085 225.322 255.127 225.268 255.182C225.214 255.237 225.173 255.304 225.149 255.377C225.104 255.513 225.104 255.659 225.149 255.795C225.239 256.025 225.35 256.247 225.48 256.458C225.719 256.869 225.925 257.281 226.236 257.745C226.331 257.877 226.458 257.982 226.606 258.048C226.754 258.114 226.917 258.14 227.079 258.123C227.374 258.071 227.651 257.948 227.888 257.765C228.325 257.445 228.723 257.075 229.075 256.664C229.244 256.47 229.401 256.266 229.546 256.054C229.708 255.844 229.827 255.605 229.898 255.35C229.936 255.201 229.921 255.044 229.855 254.905C229.79 254.766 229.678 254.654 229.54 254.588C229.409 254.55 229.272 254.546 229.139 254.576C229.007 254.607 228.885 254.67 228.783 254.76C228.484 255.024 228.218 255.325 227.994 255.656C227.664 256.123 227.4 256.634 227.211 257.175C227.124 257.364 227.079 257.57 227.079 257.778C227.388 257.079 227.766 256.413 228.206 255.788C228.427 255.489 228.683 255.217 228.969 254.979C229.028 254.925 229.1 254.886 229.177 254.867C229.255 254.847 229.336 254.847 229.414 254.866C229.479 254.905 229.529 254.965 229.556 255.036C229.582 255.107 229.584 255.185 229.559 255.258C229.496 255.464 229.392 255.655 229.254 255.821C229.115 256.02 228.963 256.213 228.803 256.398C228.462 256.782 228.082 257.129 227.669 257.433C227.475 257.582 227.247 257.682 227.006 257.725C226.907 257.738 226.808 257.723 226.717 257.682C226.627 257.641 226.55 257.575 226.495 257.493C226.236 257.115 225.991 256.644 225.746 256.259C225.63 256.076 225.525 255.885 225.434 255.689C225.367 255.51 225.434 255.39 225.527 255.344C225.812 255.224 226.09 255.549 226.283 255.821C226.709 256.448 227.01 257.151 227.172 257.891Z" fill="#263238"/>
<path d="M210.981 258.448L202.941 275.873L189.967 269.877L198.278 248.313L210.981 258.448Z" fill="#FFBE9D"/>
<path d="M204.46 274.705L199.758 283.667C199.758 283.667 211.757 296.117 210.656 298.876L182.386 285.325L190.153 267.356L204.46 274.705Z" fill="#6B4B3E"/>
<path d="M191.606 278.247C191.295 278.201 190.977 278.271 190.714 278.443C190.451 278.616 190.261 278.879 190.18 279.183C190.118 279.492 190.178 279.813 190.347 280.079C190.516 280.344 190.782 280.534 191.088 280.609C191.419 280.665 191.76 280.594 192.04 280.409C192.321 280.225 192.521 279.94 192.601 279.614C192.629 279.285 192.529 278.957 192.321 278.7C192.113 278.443 191.814 278.276 191.486 278.234" fill="#E0E0E0"/>
<g opacity="0.6">
<path d="M182.386 285.325L183.566 283.07L210.224 296.913C210.224 296.913 211.226 298.06 210.656 298.903L182.386 285.325Z" fill="white"/>
</g>
<path d="M200.288 283.74C200.215 283.879 199.499 283.607 198.603 283.74C197.708 283.872 197.071 284.264 196.972 284.151C196.872 284.038 197.462 283.335 198.544 283.209C199.625 283.083 200.381 283.627 200.288 283.74Z" fill="#263238"/>
<path d="M202.663 286.393C202.63 286.539 201.92 286.486 201.17 286.844C200.421 287.202 199.99 287.759 199.844 287.686C199.698 287.613 199.996 286.791 200.938 286.36C201.88 285.928 202.722 286.253 202.663 286.393Z" fill="#263238"/>
<path d="M202.65 290.744C202.51 290.744 202.65 289.935 203.366 289.344C204.082 288.754 204.872 288.767 204.872 288.913C204.872 289.059 204.281 289.271 203.704 289.756C203.127 290.24 202.789 290.81 202.65 290.744Z" fill="#263238"/>
<path d="M201.635 280.29C201.515 280.39 200.971 279.892 200.169 279.574C199.366 279.256 198.637 279.209 198.623 279.057C198.61 278.904 199.426 278.692 200.374 279.057C201.323 279.422 201.754 280.198 201.635 280.29Z" fill="#263238"/>
<path d="M207.113 272.384L228.306 219.32C228.306 219.32 227.828 210.273 226.163 207.414C224.498 204.555 174.008 187.886 174.008 187.886C174.008 187.886 161.147 184.789 152.577 187.886C144.007 190.984 137.573 201.696 138.761 207.653C139.948 213.609 145.427 218.451 145.427 218.451L182.107 219.115L202.338 226.47L188.707 265.532L207.113 272.384Z" fill="#263238"/>
<path d="M225.958 236.135L226.435 255.324L212.148 255.669L210.092 232.652L225.958 236.135Z" fill="#FFBE9D"/>
<path d="M227.284 253.606L227.012 263.721C227.012 263.721 243.29 269.572 243.502 272.563L212.155 272.881L211.193 253.327L227.284 253.606Z" fill="#6B4B3E"/>
<path d="M217.315 262.461C217.014 262.556 216.759 262.759 216.599 263.031C216.438 263.303 216.384 263.624 216.446 263.934C216.53 264.238 216.728 264.498 216.998 264.661C217.268 264.823 217.591 264.877 217.899 264.809C218.22 264.712 218.493 264.496 218.661 264.205C218.83 263.915 218.882 263.571 218.807 263.244C218.688 262.936 218.454 262.687 218.155 262.548C217.855 262.41 217.514 262.393 217.202 262.501" fill="#E0E0E0"/>
<g opacity="0.6">
<path d="M212.168 272.901L212.228 270.361L242.262 271.024C242.262 271.024 243.668 271.614 243.515 272.603L212.168 272.901Z" fill="white"/>
</g>
<path d="M227.53 263.555C227.53 263.708 226.76 263.788 226.017 264.285C225.275 264.783 224.87 265.433 224.731 265.373C224.591 265.313 224.81 264.431 225.726 263.841C226.641 263.25 227.563 263.416 227.53 263.555Z" fill="#263238"/>
<path d="M230.833 264.882C230.873 265.028 230.21 265.3 229.699 265.95C229.188 266.6 229.035 267.277 228.89 267.277C228.744 267.277 228.631 266.408 229.281 265.605C229.931 264.802 230.826 264.736 230.833 264.882Z" fill="#263238"/>
<path d="M232.743 268.795C232.604 268.835 232.378 268.072 232.743 267.23C233.108 266.388 233.844 266.043 233.911 266.169C233.977 266.295 233.539 266.753 233.247 267.449C232.956 268.145 232.889 268.782 232.743 268.795Z" fill="#263238"/>
<path d="M227.218 259.867C227.158 260.007 226.449 259.801 225.586 259.867C224.724 259.934 224.047 260.212 223.968 260.086C223.888 259.96 224.532 259.423 225.553 259.337C226.575 259.251 227.291 259.741 227.218 259.867Z" fill="#263238"/>
<path d="M217.613 182.872C217.613 182.872 226.177 182.209 227.125 191.495C228.074 200.781 229.002 244.108 229.002 244.108L208.997 245.779L205.9 201.484L173.988 187.906C173.988 187.906 211.896 181.685 217.613 182.872Z" fill="#263238"/>
<path d="M182.333 170.342C182.333 170.342 187.526 184.935 186.538 186.533C185.55 188.132 172.184 194.831 172.184 194.831L138.754 207.673C138.754 207.673 135.325 202.214 135.325 193.823C135.325 185.432 146.952 170.342 146.952 170.342H182.333Z" fill="#263238"/>
<path d="M172.423 187.163C172.423 187.163 172.469 187.197 172.576 187.25L173.053 187.469L174.904 188.291L181.855 191.316L205.847 201.643L205.734 201.491C206.039 205.868 206.364 210.598 206.709 215.486C207.518 226.915 208.268 237.448 208.865 245.786V245.938H209.017L223.61 244.658L227.589 244.287L228.637 244.174C228.758 244.166 228.878 244.149 228.996 244.121H228.637L227.583 244.187L223.563 244.486L208.971 245.633L209.13 245.772C208.559 237.435 207.836 226.895 207.054 215.466C206.709 210.578 206.39 205.849 206.065 201.477V201.365L205.966 201.325L181.921 191.117L174.93 188.185L173.06 187.416L172.569 187.223L172.423 187.163Z" fill="#455A64"/>
<path d="M145.831 188.623C146.152 188.564 146.467 188.477 146.773 188.364L149.287 187.555C152.035 186.624 154.851 185.912 157.711 185.426C160.57 184.957 163.488 184.993 166.334 185.532C167.502 185.806 168.656 186.141 169.79 186.533C169.518 186.354 169.227 186.207 168.921 186.096C168.104 185.749 167.259 185.476 166.394 185.28C163.523 184.65 160.558 184.574 157.658 185.054C154.776 185.55 151.947 186.314 149.208 187.336C148.153 187.707 147.304 188.032 146.727 188.258C146.417 188.349 146.117 188.471 145.831 188.623Z" fill="#455A64"/>
<path d="M150.561 180.942C151.533 180.882 152.507 180.882 153.479 180.942C154.381 181.001 155.469 181.141 156.65 181.28C157.831 181.419 159.144 181.579 160.497 181.837C162.82 182.208 165.047 183.033 167.05 184.265C167.848 184.822 168.606 185.434 169.319 186.096C169.19 185.862 169.027 185.65 168.835 185.465C168.342 184.934 167.792 184.458 167.196 184.046C165.195 182.723 162.933 181.846 160.563 181.472C159.19 181.207 157.87 181.061 156.676 180.935C155.482 180.809 154.408 180.703 153.493 180.676C152.768 180.645 152.043 180.676 151.324 180.769C151.062 180.788 150.805 180.846 150.561 180.942Z" fill="#455A64"/>
<path d="M165.326 63.8897C161.479 63.2264 158.096 64.7122 154.852 66.8812C151.616 69.114 149.14 72.2823 147.755 75.9617C146.215 79.8093 145.968 84.0535 147.052 88.0536C147.608 90.0366 148.56 91.8863 149.851 93.4913C151.141 95.0964 152.743 96.4236 154.56 97.3929C159.562 99.9333 165.963 99.0511 170.44 95.6683C174.917 92.2855 177.477 86.6872 177.69 81.0758C177.893 77.1845 176.867 73.3279 174.758 70.0517C173.693 68.4323 172.306 67.0495 170.683 65.9894C169.06 64.9292 167.237 64.2145 165.326 63.8897Z" fill="#263238"/>
<path d="M154.388 76.9699C154.952 75.4974 154.733 73.8525 154.952 72.2937C155.443 68.8578 158.209 66.1051 161.412 64.7653C164.391 63.5183 168.045 63.7902 171.614 64.951C174.103 65.7078 176.325 67.1572 178.021 69.1298C179.102 70.4678 179.847 72.0453 180.193 73.7301C180.539 75.4149 180.477 77.1581 180.011 78.8139L162.44 76.2602C160.795 77.62 159.124 78.9996 157.134 79.7624C156.559 80.016 155.929 80.1166 155.303 80.0543C154.991 80.0179 154.696 79.8921 154.454 79.6921C154.211 79.492 154.032 79.2263 153.937 78.9267C153.745 78.2634 154.143 77.6067 154.388 76.9699Z" fill="#263238"/>
<path d="M171.959 69.7997L156.617 73.0499C155.905 73.1041 155.239 73.4216 154.748 73.9403C154.258 74.459 153.978 75.1418 153.964 75.8556L154.149 109.06C154.163 111.326 154.923 113.524 156.312 115.315L157.777 117.206C161.094 121.51 167.866 121.073 170.413 116.264C170.569 115.99 170.689 115.698 170.771 115.395C170.818 115.096 170.897 114.897 170.911 114.645L171.209 111.408C171.355 108.45 171.375 105.439 171.375 105.478C171.375 105.518 177.656 104.683 179.262 96.5903C180.064 92.5707 180.117 85.9245 179.985 80.4854C179.879 75.5903 176.874 69.4747 171.959 69.7997Z" fill="#FFBE9D"/>
<path d="M177.411 87.271C177.402 87.5431 177.288 87.8012 177.093 87.9907C176.897 88.1801 176.635 88.2859 176.363 88.2858C176.23 88.2911 176.097 88.2698 175.972 88.2231C175.847 88.1764 175.733 88.1053 175.636 88.0138C175.539 87.9224 175.461 87.8125 175.407 87.6907C175.353 87.5688 175.324 87.4374 175.322 87.3041C175.329 87.0314 175.442 86.7723 175.638 86.5825C175.834 86.3928 176.097 86.2875 176.37 86.2893C176.503 86.283 176.636 86.3037 176.762 86.3501C176.887 86.3964 177.001 86.4676 177.099 86.5592C177.196 86.6508 177.274 86.761 177.327 86.8833C177.381 87.0056 177.409 87.1374 177.411 87.271Z" fill="#263238"/>
<path d="M178.419 83.8616C178.287 83.9943 177.517 83.3774 176.396 83.3376C175.275 83.2978 174.406 83.8284 174.307 83.6891C174.207 83.5498 174.393 83.384 174.765 83.132C175.263 82.8164 175.847 82.6613 176.436 82.6876C177.02 82.7075 177.583 82.9144 178.041 83.2779C178.38 83.5764 178.486 83.8616 178.419 83.8616Z" fill="#263238"/>
<path d="M167.03 86.7337C167.022 87.0058 166.908 87.264 166.712 87.4534C166.516 87.6428 166.255 87.7487 165.982 87.7485C165.85 87.7529 165.718 87.731 165.594 87.6839C165.469 87.6367 165.356 87.5655 165.26 87.4741C165.163 87.3828 165.086 87.2732 165.033 87.1518C164.979 87.0304 164.95 86.8995 164.948 86.7668C164.955 86.4941 165.068 86.235 165.264 86.0452C165.46 85.8555 165.723 85.7502 165.996 85.752C166.129 85.7467 166.261 85.768 166.386 85.8148C166.51 85.8616 166.624 85.9328 166.72 86.0244C166.817 86.1159 166.894 86.2258 166.947 86.3476C167 86.4695 167.029 86.6007 167.03 86.7337Z" fill="#263238"/>
<path d="M167.753 83.6095C167.621 83.7422 166.851 83.1253 165.724 83.0855C164.596 83.0457 163.734 83.5764 163.641 83.4305C163.548 83.2845 163.727 83.1253 164.092 82.8799C164.592 82.5622 165.178 82.407 165.77 82.4355C166.355 82.4555 166.917 82.6624 167.375 83.0259C167.714 83.3044 167.82 83.5499 167.753 83.6095Z" fill="#263238"/>
<path d="M171.123 92.1528C171.723 91.9927 172.34 91.9059 172.96 91.8941C173.246 91.8941 173.524 91.8278 173.577 91.6354C173.615 91.3406 173.559 91.0414 173.418 90.7798C173.179 90.0767 172.921 89.3338 172.655 88.5644C171.601 85.4071 170.844 82.8136 170.97 82.7738C171.096 82.734 172.058 85.2545 173.12 88.4118C173.372 89.1879 173.617 89.9308 173.843 90.6405C174.013 90.9936 174.051 91.3962 173.949 91.7747C173.904 91.874 173.837 91.9616 173.753 92.0307C173.669 92.0997 173.57 92.1483 173.464 92.1727C173.304 92.2107 173.139 92.2285 172.974 92.2258C172.356 92.2802 171.734 92.2556 171.123 92.1528Z" fill="#263238"/>
<path d="M171.382 105.478C167.549 105.393 163.815 104.244 160.596 102.162C160.596 102.162 163.117 107.906 171.295 107.468L171.382 105.478Z" fill="#EB996E"/>
<path d="M170.546 94.8458C170.345 94.565 170.073 94.3415 169.759 94.1973C169.445 94.0531 169.099 93.9931 168.755 94.0233C168.5 94.0364 168.251 94.1021 168.022 94.2162C167.794 94.3304 167.592 94.4905 167.428 94.6866C167.273 94.867 167.176 95.0909 167.151 95.3281C167.126 95.5652 167.174 95.8043 167.289 96.0132C167.46 96.2249 167.691 96.3792 167.952 96.4551C168.213 96.5311 168.491 96.525 168.748 96.4377C169.285 96.2726 169.784 96.002 170.214 95.6418C170.345 95.5562 170.458 95.4457 170.546 95.3167C170.588 95.2551 170.61 95.1823 170.61 95.1078C170.61 95.0333 170.588 94.9605 170.546 94.8989" fill="#EB996E"/>
<path d="M167.787 92.8029C167.972 92.8029 167.926 94.0167 168.934 94.9254C169.942 95.8341 171.249 95.7479 171.249 95.9203C171.249 95.9933 170.951 96.1459 170.407 96.1392C169.691 96.121 169.005 95.8509 168.47 95.3764C167.954 94.9214 167.636 94.2841 167.581 93.5988C167.554 93.0881 167.707 92.7896 167.787 92.8029Z" fill="#263238"/>
<path d="M167.687 80.2798C167.568 80.5783 166.453 80.3926 165.127 80.4987C163.8 80.6048 162.726 80.9232 162.56 80.6446C162.487 80.5053 162.686 80.2267 163.124 79.9482C163.711 79.6082 164.368 79.4065 165.045 79.3582C165.722 79.31 166.401 79.4164 167.03 79.6696C167.508 79.8818 167.747 80.1339 167.687 80.2798Z" fill="#263238"/>
<path d="M178.287 78.9598C178.074 79.2053 177.312 78.9134 176.383 78.867C175.454 78.8205 174.658 78.9665 174.486 78.6945C174.413 78.5619 174.546 78.3098 174.904 78.0843C175.373 77.8049 175.918 77.6797 176.463 77.7261C177.009 77.757 177.533 77.9563 177.962 78.2965C178.28 78.5552 178.379 78.8404 178.287 78.9598Z" fill="#263238"/>
<path d="M151.576 74.5754C153.168 69.9324 160.112 63.5382 165.027 63.9627L172.788 68.8313C172.507 70.168 171.87 71.4039 170.944 72.4081C170.018 73.4123 168.838 74.1474 167.528 74.5356C166.128 74.927 164.457 75.0132 163.601 76.1939C162.746 77.3746 163.197 79.1787 162.381 80.4257C161.26 82.1437 158.288 82.0044 157.433 83.8749C157.061 84.6907 157.227 85.679 156.836 86.4949C156.318 87.5694 153.519 88.896 152.405 88.4848C151.29 88.0735 151.304 86.1632 150.952 85.1683C150.503 84.0105 150.471 82.7327 150.859 81.5533C151.397 79.2915 150.813 76.824 151.576 74.5754Z" fill="#263238"/>
<path d="M155.748 89.5792C155.748 88.9756 155.124 87.523 154.534 87.4036C152.942 87.0919 150.057 87.1118 149.891 91.1645C149.639 96.7163 155.264 95.8076 155.277 95.6683C155.29 95.529 155.675 91.6752 155.748 89.5792Z" fill="#FFBE9D"/>
<path d="M153.658 93.486C153.658 93.486 153.559 93.5524 153.393 93.6187C153.161 93.7114 152.902 93.7114 152.67 93.6187C152.093 93.3799 151.642 92.4248 151.662 91.4232C151.667 90.9463 151.78 90.4768 151.993 90.0502C152.054 89.879 152.155 89.7249 152.287 89.6013C152.42 89.4777 152.581 89.3882 152.756 89.3404C152.869 89.3175 152.985 89.334 153.087 89.3871C153.188 89.4403 153.268 89.5269 153.313 89.6323C153.38 89.7915 153.313 89.9042 153.367 89.9109C153.42 89.9175 153.493 89.8246 153.459 89.5925C153.431 89.4543 153.359 89.3288 153.254 89.2343C153.108 89.1122 152.919 89.0526 152.73 89.0685C152.5 89.1041 152.283 89.1978 152.1 89.3405C151.917 89.4833 151.773 89.6705 151.682 89.8843C151.421 90.3536 151.28 90.8798 151.271 91.4166C151.271 92.5375 151.781 93.6054 152.597 93.8774C152.744 93.9264 152.9 93.9423 153.053 93.924C153.207 93.9056 153.355 93.8535 153.486 93.7713C153.645 93.6187 153.678 93.4993 153.658 93.486Z" fill="#EB996E"/>
<path d="M150.388 73.156C150.388 71.4248 148.239 70.2906 146.548 69.8926C144.82 69.5958 143.043 69.9352 141.547 70.8477C140.651 71.3386 139.756 72.0284 139.557 73.03C139.358 74.0315 140.319 75.2122 141.268 74.854C140.79 74.9959 140.35 75.2439 139.98 75.5795C139.611 75.915 139.323 76.3295 139.136 76.7921C138.949 77.2548 138.869 77.7535 138.902 78.2513C138.935 78.7491 139.079 79.2331 139.325 79.6672C139.571 80.1014 139.911 80.4745 140.321 80.7588C140.731 81.0431 141.2 81.2312 141.693 81.3092C142.186 81.3872 142.689 81.3531 143.167 81.2093C143.645 81.0655 144.084 80.8158 144.452 80.4788C143.968 82.0831 142.95 83.4735 141.566 84.4188C143.004 84.6242 144.47 84.447 145.817 83.9051C147.164 83.3632 148.344 82.4758 149.239 81.3322C150.133 80.1887 150.711 78.8296 150.912 77.3918C151.114 75.954 150.934 74.4884 150.388 73.1427V73.156Z" fill="#263238"/>
<path d="M146.535 81.9845C146.373 81.445 146.303 80.8822 146.329 80.3196C146.303 77.577 147.202 74.9058 148.883 72.7381C149.203 72.2764 149.598 71.8708 150.05 71.5375C150.156 71.6105 148.292 73.4545 147.317 76.4327C146.342 79.4109 146.661 81.9845 146.535 81.9845Z" fill="#6B4B3E"/>
<path d="M171.176 67.1929C171.687 69.4548 175.123 72.3534 176.628 74.1111C179.507 77.4674 180.071 78.5818 180.044 86.0505C181.371 83.457 182.439 80.9166 182.333 77.9981C182.271 75.0417 181.129 72.2102 179.122 70.0385C178.112 68.9718 176.866 68.156 175.484 67.6562C174.102 67.1564 172.622 66.9864 171.163 67.1598" fill="#263238"/>
<path d="M194.71 128.926C194.71 128.926 188.74 118.977 187.069 116.94C185.734 115.383 184.059 114.153 182.174 113.345C181.426 113.033 180.645 112.811 179.845 112.682L171.222 110.778C171.222 110.778 171.222 116.642 165.06 117.007C158.898 117.371 153.731 108.802 153.731 108.802C153.731 108.802 143.782 110.34 141.414 111.561C139.046 112.781 135.305 114.34 133.249 124.634L131.803 134.703L148.956 136.262L150.594 161.719L159.091 167.636C159.091 167.636 182.644 173.758 184.15 174.163C185.656 174.567 186.14 136.262 186.14 136.262C186.14 136.262 192.203 132.355 194.71 128.926Z" fill="#6B4B3E"/>
<path d="M183.434 124.648C183.571 124.878 183.683 125.122 183.765 125.377C183.958 125.862 184.21 126.565 184.488 127.453C185.926 132.079 186.519 136.925 186.24 141.761C186.18 142.683 186.114 143.432 186.034 143.943C186.016 144.21 185.969 144.475 185.895 144.732C185.863 144.466 185.863 144.196 185.895 143.93C185.928 143.412 185.968 142.67 185.987 141.748C186.052 139.348 185.941 136.947 185.656 134.564C185.357 132.185 184.887 129.831 184.25 127.52C184.004 126.631 183.785 125.915 183.633 125.424C183.54 125.173 183.473 124.913 183.434 124.648Z" fill="#263238"/>
<path d="M182.704 166.343L150.448 159.325L148.956 136.262L134.615 134.935C134.615 134.935 135.146 150.695 135.696 155.385C136.486 162.124 140.472 171.304 142.8 173.155C145.128 175.005 184.15 174.163 184.15 174.163L182.704 166.343Z" fill="#FFBE9D"/>
<path d="M201.011 170.521C200.904 170.745 200.732 170.931 200.518 171.056C200.304 171.181 200.058 171.24 199.811 171.224C199.704 171.214 199.6 171.192 199.499 171.158C198.782 170.933 198.836 169.48 198.836 169.48L195.42 168.923C195.42 168.923 190.975 171.788 189.39 173.685C187.805 175.582 183.779 174.05 183.779 174.05L182.379 166.754L188.674 161.063C188.674 161.063 188.282 161.408 188.72 160.34C189.158 159.272 191.128 159.676 191.128 159.676C191.44 159.152 192.727 158.96 192.727 158.96L198.245 159.623C198.807 159.688 199.347 159.877 199.826 160.178C200.304 160.479 200.709 160.883 201.011 161.361L203.346 165.056C203.346 165.056 204.58 167.709 204.381 168.339C204.293 168.597 204.113 168.813 203.875 168.946C203.638 169.08 203.36 169.121 203.094 169.062C203.094 169.062 202.822 170.813 202.364 170.873C201.892 170.848 201.429 170.736 200.998 170.541L201.011 170.521Z" fill="#FFBE9D"/>
<path d="M189.264 165.288C189.264 165.348 190.007 165.288 191.181 165.334C192.714 165.402 194.231 165.686 195.685 166.177C196.486 166.445 197.264 166.775 198.013 167.165C198.676 167.543 199.373 167.828 199.585 168.339C199.634 168.445 199.655 168.562 199.644 168.679C199.634 168.795 199.593 168.907 199.525 169.002C199.426 169.16 199.28 169.283 199.107 169.354C198.951 169.405 198.788 169.43 198.623 169.427C198.623 169.427 198.796 169.579 199.154 169.48C199.366 169.419 199.552 169.291 199.685 169.115C199.78 168.995 199.842 168.853 199.865 168.702C199.888 168.55 199.872 168.396 199.817 168.253C199.68 167.933 199.448 167.663 199.154 167.477C198.855 167.278 198.544 167.079 198.192 166.887C197.435 166.471 196.642 166.122 195.824 165.845C194.339 165.344 192.782 165.089 191.214 165.089C190.558 165.058 189.901 165.125 189.264 165.288Z" fill="#EB996E"/>
<path d="M188.879 168.81C188.879 168.916 191.135 168.81 193.894 168.983C196.653 169.155 198.875 169.48 198.889 169.381C198.429 169.199 197.947 169.081 197.456 169.029C196.284 168.83 195.101 168.697 193.914 168.631C192.725 168.564 191.534 168.564 190.345 168.631C189.851 168.623 189.358 168.683 188.879 168.81Z" fill="#EB996E"/>
<path d="M200.978 170.382C201.028 170.192 201.053 169.995 201.051 169.798C201.085 169.259 201.085 168.719 201.051 168.18C201.032 167.803 200.981 167.428 200.898 167.059C200.799 166.626 200.614 166.218 200.355 165.858C199.814 165.023 199.113 164.304 198.292 163.742C197.474 163.177 196.581 162.731 195.638 162.416C194.861 162.194 194.059 162.074 193.251 162.058C192.587 162.058 192.017 162.058 191.639 162.058C191.44 162.045 191.241 162.065 191.048 162.117C191.774 162.217 192.505 162.277 193.237 162.296C194.018 162.349 194.791 162.492 195.539 162.721C196.439 163.049 197.291 163.495 198.073 164.048C198.854 164.581 199.529 165.256 200.063 166.037C200.493 166.678 200.741 167.423 200.779 168.193C200.938 169.54 200.905 170.389 200.978 170.382Z" fill="#EB996E"/>
<path d="M193.005 160.373C193.005 160.426 193.834 160.446 195.154 160.598C196.474 160.751 198.471 160.884 199.612 162.635C200.736 163.943 201.673 165.401 202.397 166.966C202.634 167.637 202.809 168.327 202.921 169.029C202.968 168.838 202.979 168.64 202.955 168.445C202.921 167.911 202.812 167.384 202.63 166.88C201.962 165.253 201.034 163.746 199.884 162.416C199.576 162.011 199.217 161.647 198.816 161.335C198.418 161.046 197.967 160.839 197.489 160.724C196.723 160.522 195.939 160.398 195.148 160.353C194.436 160.266 193.715 160.272 193.005 160.373Z" fill="#EB996E"/>
<path d="M190.611 172.511C190.731 172.441 190.842 172.356 190.942 172.259C191.181 172.073 191.486 171.821 191.864 171.516C193.025 170.616 194.237 169.784 195.493 169.022H195.413L198.829 169.606L198.71 169.46C198.702 169.74 198.724 170.02 198.776 170.296C198.822 170.602 198.955 170.887 199.161 171.118C199.29 171.229 199.449 171.3 199.618 171.324C199.776 171.357 199.938 171.357 200.096 171.324C200.426 171.274 200.728 171.107 200.945 170.853C201.003 170.793 201.054 170.726 201.097 170.654L201.131 170.601V170.568L200.932 170.641L201.038 170.681L201.475 170.84C201.628 170.886 201.781 170.926 201.946 170.959C202.03 170.966 202.115 170.966 202.198 170.959C202.308 170.968 202.418 170.947 202.517 170.899C202.668 170.781 202.783 170.622 202.848 170.442C202.917 170.292 202.975 170.136 203.021 169.977C203.114 169.66 203.187 169.336 203.24 169.009L203.041 169.148C203.273 169.196 203.513 169.18 203.737 169.103C203.961 169.026 204.16 168.891 204.314 168.711C204.468 168.524 204.55 168.289 204.547 168.047C204.535 167.822 204.495 167.599 204.427 167.384C204.173 166.542 203.858 165.72 203.485 164.923C203.094 164.293 202.669 163.63 202.245 162.933L201.456 161.686C201.211 161.251 200.92 160.844 200.587 160.472C200.236 160.117 199.816 159.837 199.353 159.65C198.899 159.484 198.423 159.386 197.94 159.358L192.74 158.774H192.7C192.388 158.827 192.082 158.906 191.785 159.013C191.469 159.109 191.192 159.305 190.995 159.57L191.188 159.511C190.906 159.382 190.596 159.323 190.287 159.341C189.977 159.358 189.676 159.45 189.41 159.61C188.95 159.948 188.637 160.449 188.535 161.01L188.581 160.937L184.243 164.837C183.752 165.281 183.367 165.64 183.076 165.911C182.932 166.028 182.801 166.16 182.684 166.303C182.841 166.205 182.988 166.092 183.122 165.965L184.336 164.943L188.753 161.129V161.083C188.85 160.596 189.124 160.163 189.523 159.869C189.75 159.74 190.004 159.667 190.265 159.656C190.526 159.646 190.785 159.698 191.022 159.809L191.141 159.856L191.214 159.749C191.387 159.544 191.619 159.396 191.878 159.325C192.154 159.229 192.438 159.158 192.727 159.113H192.687L197.88 159.723C198.334 159.749 198.781 159.843 199.207 160.001C199.628 160.168 200.01 160.421 200.328 160.744C200.64 161.099 200.914 161.486 201.144 161.899L201.933 163.146L203.18 165.135C203.543 165.914 203.853 166.716 204.109 167.537C204.167 167.727 204.205 167.922 204.222 168.12C204.23 168.293 204.17 168.462 204.056 168.591C203.943 168.723 203.796 168.822 203.631 168.877C203.467 168.932 203.29 168.941 203.12 168.903H202.948V169.069C202.897 169.382 202.828 169.692 202.742 169.997C202.688 170.269 202.564 170.523 202.384 170.734C202.34 170.741 202.295 170.741 202.252 170.734C202.181 170.74 202.11 170.74 202.039 170.734C201.894 170.707 201.75 170.671 201.608 170.628C201.469 170.588 201.33 170.535 201.19 170.482L201.091 170.442L200.892 170.515V170.555C200.86 170.614 200.823 170.669 200.779 170.72C200.608 170.918 200.373 171.049 200.116 171.092C199.991 171.115 199.863 171.115 199.738 171.092C199.623 171.081 199.514 171.034 199.426 170.959C199.136 170.543 199.004 170.038 199.054 169.533V169.407H198.942L195.519 168.87H195.473H195.439C194.184 169.652 192.985 170.521 191.851 171.47C191.46 171.802 191.188 172.073 190.962 172.259C190.837 172.331 190.719 172.416 190.611 172.511Z" fill="#EB996E"/>
<path d="M236.338 149.329L193.854 149.674C192.475 149.674 191.161 150.337 190.956 151.664L186.312 182.633H164.424C164.086 182.633 163.762 182.767 163.523 183.006C163.284 183.245 163.15 183.569 163.15 183.907C163.15 184.244 163.284 184.568 163.523 184.807C163.762 185.046 164.086 185.18 164.424 185.18H234.309L239.084 152.5C239.139 152.106 239.109 151.706 238.997 151.325C238.884 150.944 238.691 150.591 238.431 150.291C238.171 149.991 237.85 149.75 237.489 149.584C237.128 149.418 236.736 149.331 236.338 149.329Z" fill="#E0E0E0"/>
<path d="M236.338 149.329C236.561 149.314 236.785 149.334 237.002 149.389C237.655 149.543 238.232 149.927 238.627 150.47C238.916 150.858 239.097 151.316 239.151 151.797C239.166 152.384 239.115 152.972 238.998 153.548L238.381 157.859C237.446 164.346 236.1 173.705 234.441 185.207V185.32H234.309L166.5 185.359H164.662C164.329 185.394 163.993 185.331 163.694 185.18C163.386 185.014 163.15 184.74 163.031 184.411C162.912 184.086 162.914 183.729 163.035 183.406C163.157 183.082 163.391 182.813 163.694 182.646C163.989 182.496 164.32 182.434 164.649 182.467H186.279L186.114 182.607L190.757 151.889C190.799 151.269 191.08 150.69 191.539 150.271C192.004 149.886 192.567 149.638 193.164 149.555C193.733 149.502 194.305 149.482 194.876 149.495H196.547L202.941 149.455L214.31 149.382L230.495 149.303H234.826H235.94H236.318C236.318 149.303 236.192 149.303 235.94 149.303H234.826L230.495 149.369L214.31 149.548L202.941 149.661L196.547 149.72H194.882C194.324 149.71 193.766 149.73 193.211 149.78C192.663 149.856 192.147 150.086 191.725 150.443C191.323 150.822 191.085 151.344 191.062 151.896C189.675 161.182 188.137 171.523 186.478 182.613V182.759H164.662C164.392 182.725 164.118 182.771 163.873 182.892C163.648 183.02 163.475 183.222 163.383 183.465C163.291 183.707 163.286 183.973 163.369 184.218C163.462 184.465 163.638 184.671 163.867 184.802C164.114 184.928 164.393 184.979 164.669 184.948H166.493L234.302 184.988L234.169 185.101L238.222 157.76C238.468 156.148 238.68 154.708 238.885 153.455C239.003 152.89 239.061 152.314 239.058 151.737C239.014 151.259 238.845 150.801 238.567 150.41C238.187 149.876 237.63 149.493 236.995 149.329C236.777 149.311 236.557 149.311 236.338 149.329Z" fill="#263238"/>
<path d="M210.636 166.88C210.636 167.405 210.791 167.918 211.083 168.354C211.374 168.79 211.789 169.13 212.273 169.331C212.758 169.532 213.292 169.584 213.806 169.482C214.321 169.38 214.794 169.127 215.165 168.756C215.536 168.385 215.789 167.912 215.891 167.397C215.993 166.883 215.941 166.349 215.74 165.865C215.539 165.38 215.199 164.965 214.763 164.674C214.327 164.382 213.814 164.227 213.289 164.227C212.585 164.227 211.91 164.506 211.413 165.004C210.915 165.501 210.636 166.176 210.636 166.88Z" fill="white"/>
<path d="M188.03 184.928C188.09 184.928 189.443 177.055 191.048 167.318C192.654 157.58 193.914 149.681 193.854 149.674C193.794 149.667 192.441 157.547 190.836 167.284C189.231 177.022 187.971 184.922 188.03 184.928Z" fill="#263238"/>
</g>
<defs>
<clipPath id="clip0_1_876">
<rect width="343" height="290" fill="white"/>
</clipPath>
</defs>
</svg>
