<svg width="246" height="208" viewBox="0 0 246 208" fill="none" xmlns="http://www.w3.org/2000/svg">
<path d="M19.0446 161.491H21.2937C22.3245 158.049 23.0003 154.51 23.3103 150.931C23.8003 144.303 20.5901 134.157 14.7098 130.758C8.82957 127.359 5.64443 131.562 7.61708 135.156C9.58973 138.749 16.2427 148.971 16.3307 157.766L19.0446 161.491Z" fill="#C49E85"/>
<path d="M18.5046 161.491H19.1328C19.7466 157.151 19.7466 152.746 19.1328 148.405C18.1151 139.805 15.288 135.809 12.662 133.032C12.6045 132.971 12.5252 132.936 12.4416 132.934C12.3579 132.931 12.2768 132.962 12.216 133.02C12.1552 133.077 12.1197 133.156 12.1173 133.24C12.115 133.324 12.1459 133.405 12.2034 133.466C14.7603 136.161 17.512 140.056 18.4857 148.474C19.1081 152.79 19.1144 157.173 18.5046 161.491Z" fill="white"/>
<path d="M19.2271 161.491C18.0711 156.038 12.8191 149.555 7.86234 148.437C2.11402 147.18 -0.68161 150.214 0.141374 152.834C0.964357 155.454 5.50647 156.673 9.91666 158.727C11.4017 159.414 12.7591 160.349 13.9311 161.491H19.2271Z" fill="#C49E85"/>
<path d="M17.1348 161.491H17.807C15.3758 155.378 9.84736 151.019 5.32409 150.616C5.28314 150.612 5.24174 150.616 5.20234 150.628C5.16294 150.64 5.12635 150.66 5.09471 150.686C5.06308 150.712 5.03706 150.745 5.01819 150.782C4.99932 150.818 4.98798 150.858 4.98484 150.899C4.9796 150.94 4.98289 150.982 4.9945 151.022C5.00611 151.062 5.02579 151.099 5.05231 151.13C5.07884 151.162 5.11164 151.188 5.14868 151.207C5.18571 151.225 5.22617 151.236 5.26755 151.238C9.53952 151.622 14.7601 155.718 17.1348 161.491Z" fill="white"/>
<path d="M222.027 104.014L226.732 106.483L227.128 103.537C224.797 96.9655 226.713 89.5147 229.233 86.4112C231.752 83.3078 231.268 81.0273 230.357 80.0095C229.446 78.9918 225.991 78.2191 222.573 82.2146C219.156 86.2102 218.37 91.0601 218.942 95.9541C219.307 99.0135 220.915 102.155 222.027 104.014Z" fill="#C49E85"/>
<path opacity="0.2" d="M222.027 104.014L226.732 106.483L227.128 103.537C224.797 96.9655 226.713 89.5147 229.233 86.4112C231.752 83.3078 231.268 81.0273 230.357 80.0095C229.446 78.9918 225.991 78.2191 222.573 82.2146C219.156 86.2102 218.37 91.0601 218.942 95.9541C219.307 99.0135 220.915 102.155 222.027 104.014Z" fill="black"/>
<path d="M223.967 105.032L224.897 105.522C224.888 105.504 224.878 105.488 224.866 105.472C223.534 103.889 221.812 96.1362 222.535 91.5941C223.427 85.984 226.304 82.3214 228.767 80.7697C228.797 80.7511 228.823 80.7267 228.844 80.6978C228.864 80.669 228.879 80.6363 228.886 80.6017C228.894 80.5671 228.895 80.5313 228.888 80.4965C228.882 80.4617 228.868 80.4285 228.849 80.399C228.809 80.339 228.747 80.2968 228.677 80.2816C228.606 80.2663 228.533 80.2792 228.472 80.3173C225.959 81.9319 222.918 85.7201 221.995 91.5124C221.329 95.7404 222.661 102.437 223.967 105.032Z" fill="white"/>
<path d="M226.826 92.8003C228.202 96.174 228.196 97.8262 225.953 98.1717C223.93 98.4733 221.474 100.93 223.754 104.919L237.098 111.917C237.131 111.172 237.316 110.44 237.64 109.768C237.963 109.095 238.42 108.495 238.982 108.004C241.175 105.811 243.198 104.159 242.884 101.721C242.57 99.2837 240.452 96.9341 240.101 94.8107C239.749 92.6873 240.829 91.4748 243.135 89.0938C245.441 86.7128 247.533 83.0188 244.454 81.3351C241.376 79.6515 237.852 82.535 236.382 84.4763C234.911 86.4175 233.567 87.2719 230.671 87.1086C227.775 86.9452 225.45 89.4267 226.826 92.8003Z" fill="#C49E85"/>
<path d="M230.602 108.512C230.539 98.1591 237.959 86.0343 242.086 83.5842C242.147 83.5453 242.191 83.4846 242.208 83.4145C242.226 83.3444 242.216 83.2702 242.181 83.2072C242.143 83.1468 242.083 83.1032 242.014 83.0857C241.945 83.0681 241.872 83.0779 241.81 83.113C237.626 85.6259 230.144 97.7571 230.062 108.242L230.602 108.512Z" fill="white"/>
<path d="M232.587 97.7508C232.53 97.7638 232.471 97.7572 232.419 97.7321C232.366 97.707 232.324 97.6649 232.298 97.6126C231.1 95.3766 230.091 93.044 229.283 90.6392C229.272 90.6054 229.268 90.5698 229.271 90.5344C229.274 90.4991 229.284 90.4647 229.3 90.4332C229.317 90.4017 229.339 90.3737 229.366 90.3508C229.393 90.328 229.425 90.3107 229.459 90.3C229.492 90.2893 229.528 90.2853 229.563 90.2883C229.599 90.2914 229.633 90.3013 229.665 90.3177C229.696 90.334 229.724 90.3564 229.747 90.3835C229.77 90.4107 229.787 90.4421 229.798 90.4759C230.599 92.8473 231.595 95.1482 232.776 97.355C232.809 97.4193 232.816 97.4942 232.795 97.5635C232.774 97.6328 232.726 97.6911 232.663 97.7257L232.587 97.7508Z" fill="white"/>
<path d="M230.803 104.096C230.752 104.105 230.699 104.101 230.65 104.082C230.601 104.063 230.558 104.031 230.527 103.989C230.485 103.929 230.469 103.855 230.482 103.783C230.495 103.712 230.536 103.648 230.596 103.606C233.301 101.712 236.583 100.823 239.875 101.093C239.947 101.102 240.012 101.139 240.056 101.197C240.1 101.254 240.12 101.326 240.11 101.398C240.101 101.469 240.064 101.534 240.007 101.579C239.95 101.623 239.877 101.642 239.806 101.633C236.654 101.393 233.516 102.238 230.91 104.027C230.879 104.057 230.843 104.08 230.803 104.096Z" fill="white"/>
<path d="M151.959 40.8519L136.649 32.0127L121.346 40.8519L136.649 49.6911L151.959 40.8519Z" fill="#C49E85"/>
<path d="M136.65 67.3758L151.96 58.5366V40.8519L136.65 49.6911V67.3758Z" fill="#B08E78"/>
<path d="M139.603 61.5081C139.522 61.5096 139.442 61.4901 139.37 61.4516C139.272 61.3802 139.195 61.285 139.144 61.175C139.093 61.0651 139.072 60.944 139.081 60.8233V58.9386V58.8004H139.175L140.646 57.9398V60.0318C140.643 60.3012 140.577 60.5662 140.451 60.8045C140.325 61.0428 140.144 61.2475 139.923 61.4013C139.828 61.4655 139.717 61.5024 139.603 61.5081ZM139.32 59.0769V60.8108C139.309 60.8915 139.32 60.9735 139.349 61.0493C139.379 61.125 139.427 61.1921 139.49 61.2443C139.54 61.267 139.597 61.2755 139.652 61.2689C139.707 61.2622 139.76 61.2407 139.804 61.2066C139.992 61.0753 140.147 60.9018 140.256 60.7C140.365 60.4982 140.425 60.2736 140.432 60.0443V59.8936H139.885L139.779 59.1585L139.32 59.0769ZM140.074 59.6548H140.413V58.367L139.534 58.8758L139.967 58.9575L140.074 59.6548Z" fill="white"/>
<path d="M139.867 63.0033C139.835 63.0033 139.805 62.9907 139.782 62.9684C139.76 62.946 139.747 62.9156 139.747 62.884V61.3134C139.746 61.2975 139.749 61.2815 139.754 61.2666C139.76 61.2517 139.769 61.2382 139.78 61.2269C139.791 61.2157 139.805 61.2069 139.82 61.2012C139.835 61.1956 139.851 61.1931 139.867 61.194C139.898 61.194 139.929 61.2066 139.951 61.229C139.973 61.2514 139.986 61.2817 139.986 61.3134V62.8588C139.989 62.8763 139.988 62.8942 139.983 62.9112C139.978 62.9283 139.97 62.9442 139.959 62.9578C139.947 62.9714 139.933 62.9825 139.917 62.9904C139.902 62.9982 139.884 63.0026 139.867 63.0033Z" fill="white"/>
<path d="M139.182 63.3991C139.161 63.399 139.141 63.393 139.123 63.3819C139.105 63.3708 139.091 63.355 139.081 63.3363C139.073 63.3234 139.067 63.3088 139.064 63.2935C139.062 63.2782 139.063 63.2625 139.067 63.2476C139.071 63.2326 139.079 63.2187 139.089 63.2069C139.099 63.1951 139.111 63.1857 139.125 63.1792L140.489 62.3877C140.502 62.3798 140.517 62.3747 140.533 62.3726C140.548 62.3706 140.564 62.3716 140.579 62.3757C140.595 62.3798 140.609 62.3868 140.621 62.3964C140.634 62.406 140.644 62.418 140.652 62.4316C140.666 62.4594 140.67 62.4916 140.662 62.5218C140.653 62.552 140.634 62.5781 140.608 62.595L139.238 63.3803L139.182 63.3991Z" fill="white"/>
<path d="M144.057 60.6851C144.014 60.6983 143.968 60.6983 143.925 60.6851C143.879 60.6543 143.842 60.612 143.818 60.5623C143.793 60.5127 143.783 60.4576 143.786 60.4024V60.082C143.786 60.0667 143.788 60.0513 143.793 60.0368C143.798 60.0224 143.807 60.0092 143.817 59.998C143.828 59.9868 143.841 59.9779 143.855 59.9718C143.869 59.9658 143.884 59.9627 143.899 59.9627C143.915 59.9618 143.931 59.9642 143.946 59.9699C143.961 59.9756 143.975 59.9843 143.986 59.9956C143.997 60.0069 144.006 60.0204 144.012 60.0353C144.017 60.0502 144.02 60.0661 144.019 60.082V60.3459C144.019 60.3962 144.019 60.4213 144.019 60.4213C144.019 60.4213 144.057 60.4213 144.094 60.4213C144.167 60.3549 144.225 60.2732 144.263 60.182C144.301 60.0908 144.319 59.9923 144.314 59.8936V57.833C144.314 57.8176 144.317 57.8023 144.323 57.7882C144.329 57.7741 144.338 57.7613 144.349 57.7507C144.361 57.7401 144.374 57.7319 144.388 57.7266C144.403 57.7213 144.418 57.719 144.433 57.7199C144.463 57.7199 144.492 57.7318 144.513 57.753C144.535 57.7742 144.547 57.803 144.547 57.833V59.9313C144.551 60.0711 144.524 60.2102 144.466 60.3377C144.408 60.4651 144.322 60.5776 144.214 60.6663C144.163 60.6825 144.11 60.6888 144.057 60.6851Z" fill="white"/>
<path d="M142.812 58.857V58.6559C142.842 58.1327 142.993 57.6237 143.255 57.1698C143.517 56.7159 143.882 56.3298 144.32 56.0425C144.477 55.9105 144.671 55.83 144.875 55.8119C145.079 55.7937 145.284 55.8388 145.461 55.941C145.639 56.0432 145.781 56.1976 145.868 56.3832C145.955 56.5688 145.983 56.7767 145.947 56.9786V57.0477L142.812 58.857ZM145.024 56.0676C144.816 56.0741 144.614 56.1371 144.44 56.2498C144.067 56.4959 143.75 56.8188 143.512 57.1969C143.274 57.575 143.119 57.9996 143.058 58.4423L145.709 56.9157C145.719 56.7675 145.69 56.6191 145.627 56.4849C145.563 56.3507 145.466 56.2351 145.344 56.1493C145.247 56.094 145.136 56.0658 145.024 56.0676Z" fill="white"/>
<path d="M148.26 58.2727C148.229 58.2728 148.199 58.2611 148.177 58.24C148.155 58.219 148.142 58.1902 148.14 58.1597V54.1515C148.14 54.1199 148.153 54.0895 148.175 54.0671C148.197 54.0447 148.228 54.0322 148.26 54.0322C148.291 54.0322 148.322 54.0447 148.344 54.0671C148.366 54.0895 148.379 54.1199 148.379 54.1515V58.1597C148.377 58.1902 148.364 58.219 148.342 58.24C148.32 58.2611 148.29 58.2728 148.26 58.2727Z" fill="white"/>
<path d="M147.939 55.0625H147.895C147.881 55.0563 147.868 55.0473 147.857 55.0361C147.846 55.0249 147.837 55.0116 147.831 54.997C147.825 54.9824 147.823 54.9668 147.823 54.9511C147.823 54.9354 147.826 54.9198 147.833 54.9054L148.253 53.9379L148.718 54.4782C148.728 54.4898 148.736 54.5031 148.74 54.5176C148.745 54.5321 148.747 54.5473 148.746 54.5625C148.745 54.5776 148.741 54.5924 148.734 54.606C148.727 54.6196 148.717 54.6316 148.706 54.6415C148.694 54.6514 148.681 54.659 148.666 54.6637C148.652 54.6684 148.637 54.6703 148.621 54.6691C148.606 54.6679 148.592 54.6638 148.578 54.6569C148.564 54.65 148.552 54.6405 148.542 54.629L148.316 54.3777L148.046 55.0059C148.035 55.0245 148.02 55.0396 148.001 55.0497C147.982 55.0597 147.961 55.0641 147.939 55.0625Z" fill="white"/>
<path d="M149.372 57.6571C149.341 57.6554 149.312 57.6422 149.291 57.62C149.27 57.5977 149.258 57.5683 149.259 57.5377V53.5296C149.254 53.5121 149.254 53.4938 149.258 53.4763C149.262 53.4587 149.27 53.4423 149.281 53.4282C149.292 53.4141 149.307 53.4027 149.323 53.3949C149.339 53.3871 149.357 53.383 149.375 53.383C149.393 53.383 149.41 53.3871 149.427 53.3949C149.443 53.4027 149.457 53.4141 149.468 53.4282C149.479 53.4423 149.487 53.4587 149.491 53.4763C149.495 53.4938 149.495 53.5121 149.491 53.5296V57.5377C149.491 57.5693 149.478 57.5997 149.456 57.6221C149.434 57.6445 149.403 57.6571 149.372 57.6571Z" fill="white"/>
<path d="M149.027 54.4405H148.983C148.968 54.4344 148.955 54.4254 148.944 54.4142C148.933 54.4029 148.925 54.3896 148.919 54.375C148.913 54.3604 148.91 54.3448 148.91 54.3291C148.91 54.3134 148.914 54.2979 148.92 54.2835L149.341 53.316L149.806 53.8563C149.826 53.8784 149.838 53.9076 149.838 53.9379C149.838 53.9683 149.826 53.9975 149.806 54.0196C149.783 54.0408 149.752 54.0525 149.721 54.0525C149.69 54.0525 149.659 54.0408 149.636 54.0196L149.416 53.762L149.146 54.3903C149.133 54.4092 149.115 54.4241 149.094 54.433C149.073 54.4419 149.049 54.4445 149.027 54.4405Z" fill="white"/>
<path d="M136.65 67.3758L121.34 58.5366L121.346 40.8519L136.65 49.6911V67.3758Z" fill="#9D7E6A"/>
<path d="M129.827 45.7521L145.125 36.9066L143.397 35.9077L128.093 44.7532L129.827 45.7521Z" fill="white"/>
<path d="M123.664 50.9915L129.148 54.1327C129.464 54.3405 129.726 54.6191 129.915 54.9463C130.104 55.2735 130.213 55.6403 130.235 56.0174V59.3973C130.235 60.0946 129.745 60.3773 129.148 60.0255L123.664 56.8844C123.348 56.6769 123.085 56.3984 122.897 56.0711C122.708 55.7438 122.599 55.3769 122.577 54.9997V51.6198C122.577 50.9224 123.067 50.646 123.664 50.9915Z" fill="#C49E85"/>
<path d="M123.244 51.8334L123.451 51.959V55.7095L123.244 55.5902V51.8334Z" fill="#C49E85"/>
<path d="M124.091 52.3234L124.449 52.537V56.2875L124.091 56.0802V52.3234Z" fill="#C49E85"/>
<path d="M124.939 52.8134L125.147 52.9328V56.6896L124.939 56.5702V52.8134Z" fill="#C49E85"/>
<path d="M125.574 53.1778L125.995 53.4228V57.1796L125.574 56.9283V53.1778Z" fill="#C49E85"/>
<path d="M126.63 53.7934L126.843 53.9128V57.6696L126.63 57.544V53.7934Z" fill="#C49E85"/>
<path d="M127.245 54.1389L127.685 54.4028V58.1533L127.239 57.8895L127.245 54.1389Z" fill="#C49E85"/>
<path d="M128.326 54.7735L128.533 54.8928V58.6434L128.326 58.524V54.7735Z" fill="#C49E85"/>
<path d="M128.81 55.0436L128.916 55.1064V58.857L128.81 58.8004V55.0436Z" fill="#C49E85"/>
<path d="M127.943 54.5662L128.043 54.629V58.3795L127.943 58.323V54.5662Z" fill="#C49E85"/>
<path d="M126.234 53.5673L126.334 53.6238V57.3806L126.234 57.3178V53.5673Z" fill="#C49E85"/>
<path d="M125.298 53.027L125.405 53.0898V56.8466L125.298 56.7838V53.027Z" fill="#C49E85"/>
<path d="M124.626 52.6563L124.733 52.7192V56.476L124.626 56.4132V52.6563Z" fill="#C49E85"/>
<path d="M123.715 52.1035L123.822 52.1663V55.9231L123.715 55.8603V52.1035Z" fill="#C49E85"/>
<path d="M129.174 55.2572L129.381 55.3766V59.1334L129.174 59.014V55.2572Z" fill="#C49E85"/>
<path d="M131.548 37.9055L113.681 27.5962L95.8208 37.9055L113.681 48.221L131.548 37.9055Z" fill="#C49E85"/>
<path d="M106.024 43.7983L123.891 33.489L122.157 32.4901L104.296 42.7994L106.024 43.7983Z" fill="white"/>
<path d="M113.682 80.6315L131.549 70.3222V37.9054L113.682 48.221V80.6315Z" fill="#B08E78"/>
<path d="M116.635 74.7952C116.553 74.7967 116.472 74.7749 116.402 74.7324C116.303 74.6623 116.224 74.5673 116.174 74.457C116.123 74.3467 116.102 74.225 116.113 74.1042V72.2195V72.0813H116.214L117.678 71.2206V73.3126C117.675 73.5818 117.607 73.8465 117.482 74.0846C117.356 74.3228 117.176 74.5276 116.955 74.6821C116.861 74.7486 116.75 74.7877 116.635 74.7952ZM116.352 72.364V74.0979C116.342 74.1786 116.352 74.2606 116.381 74.3364C116.411 74.4121 116.459 74.4792 116.522 74.5314C116.573 74.5541 116.629 74.5626 116.684 74.556C116.739 74.5493 116.792 74.5278 116.836 74.4937C117.024 74.3624 117.179 74.1889 117.288 73.9871C117.397 73.7853 117.457 73.5607 117.464 73.3314V73.1807H116.917L116.811 72.4456L116.352 72.364ZM117.106 72.9419H117.477V71.6541L116.597 72.1692L117.031 72.2446L117.106 72.9419Z" fill="white"/>
<path d="M116.898 76.2653C116.867 76.2653 116.836 76.2527 116.814 76.2303C116.791 76.2079 116.779 76.1776 116.779 76.1459V74.5691C116.779 74.5537 116.782 74.5384 116.788 74.5243C116.794 74.5101 116.803 74.4974 116.814 74.4868C116.825 74.4762 116.839 74.468 116.853 74.4627C116.867 74.4574 116.883 74.4551 116.898 74.456C116.929 74.4559 116.958 74.4676 116.98 74.4887C117.003 74.5097 117.016 74.5385 117.018 74.5691V76.1459C117.016 76.1771 117.003 76.2066 116.981 76.2286C116.959 76.2507 116.929 76.2638 116.898 76.2653Z" fill="white"/>
<path d="M116.22 76.6799C116.2 76.6804 116.18 76.6754 116.162 76.6654C116.144 76.6555 116.13 76.6409 116.119 76.6234C116.105 76.5956 116.102 76.5634 116.11 76.5332C116.118 76.503 116.137 76.4769 116.163 76.46L117.527 75.6747C117.54 75.6669 117.555 75.6618 117.571 75.6597C117.586 75.6577 117.602 75.6587 117.617 75.6628C117.633 75.6669 117.647 75.6739 117.659 75.6835C117.672 75.6931 117.682 75.7051 117.69 75.7187C117.698 75.7318 117.703 75.7464 117.705 75.7615C117.707 75.7766 117.706 75.7919 117.701 75.8066C117.697 75.8213 117.69 75.835 117.681 75.8468C117.671 75.8587 117.659 75.8686 117.646 75.8758L116.276 76.6673C116.259 76.6774 116.24 76.6818 116.22 76.6799Z" fill="white"/>
<path d="M121.089 73.9471C121.043 73.9472 120.998 73.9365 120.957 73.9157C120.911 73.8849 120.874 73.8425 120.85 73.7929C120.826 73.7432 120.815 73.6881 120.819 73.633V73.3063C120.819 73.2909 120.822 73.2757 120.828 73.2615C120.834 73.2474 120.843 73.2346 120.854 73.224C120.865 73.2134 120.878 73.2052 120.893 73.1999C120.907 73.1946 120.923 73.1924 120.938 73.1932C120.953 73.1932 120.968 73.1961 120.981 73.2018C120.995 73.2075 121.007 73.2158 121.018 73.2263C121.028 73.2368 121.037 73.2493 121.042 73.263C121.048 73.2767 121.051 73.2914 121.051 73.3063V73.633C121.051 73.6769 121.051 73.7021 121.051 73.7084C121.051 73.7146 121.089 73.7084 121.126 73.7084C121.2 73.6407 121.257 73.5579 121.295 73.4657C121.333 73.3734 121.351 73.274 121.346 73.1744V71.0823C121.346 71.0507 121.359 71.0203 121.381 70.9979C121.404 70.9756 121.434 70.963 121.466 70.963C121.497 70.9645 121.526 70.9776 121.548 70.9996C121.57 71.0217 121.584 71.0512 121.585 71.0823V73.1744C121.591 73.315 121.563 73.4551 121.504 73.5829C121.445 73.7107 121.357 73.8226 121.246 73.9094C121.197 73.9338 121.143 73.9466 121.089 73.9471Z" fill="white"/>
<path d="M119.845 72.1189V71.9116C119.875 71.3894 120.027 70.8814 120.289 70.4286C120.551 69.9758 120.915 69.5907 121.353 69.3045C121.51 69.1725 121.703 69.092 121.908 69.0738C122.112 69.0557 122.317 69.1007 122.494 69.203C122.672 69.3052 122.814 69.4595 122.901 69.6451C122.988 69.8308 123.015 70.0386 122.98 70.2405V70.3096L119.845 72.1189ZM122.057 69.3233C121.849 69.3328 121.648 69.3956 121.472 69.5055C121.099 69.7523 120.782 70.0761 120.543 70.4554C120.305 70.8346 120.151 71.2604 120.09 71.7043L122.741 70.1777C122.751 70.0286 122.722 69.8796 122.658 69.7445C122.595 69.6094 122.498 69.4926 122.377 69.405C122.279 69.3515 122.169 69.3234 122.057 69.3233Z" fill="white"/>
<path d="M125.317 71.5347C125.285 71.5347 125.255 71.5221 125.232 71.4997C125.21 71.4773 125.197 71.447 125.197 71.4153V67.4072C125.197 67.3756 125.21 67.3452 125.232 67.3228C125.255 67.3004 125.285 67.2878 125.317 67.2878C125.348 67.2878 125.379 67.3004 125.401 67.3228C125.423 67.3452 125.436 67.3756 125.436 67.4072V71.4153C125.436 71.447 125.423 71.4773 125.401 71.4997C125.379 71.5221 125.348 71.5347 125.317 71.5347Z" fill="white"/>
<path d="M124.971 68.3244H124.927C124.913 68.3189 124.9 68.3106 124.889 68.3C124.878 68.2893 124.869 68.2766 124.863 68.2625C124.857 68.2484 124.854 68.2333 124.854 68.218C124.855 68.2027 124.858 68.1877 124.864 68.1737L125.285 67.2062L125.75 67.7465C125.77 67.7698 125.78 67.8001 125.777 67.8307C125.775 67.8614 125.761 67.8898 125.737 67.9098C125.714 67.9298 125.684 67.9397 125.653 67.9374C125.622 67.935 125.594 67.9206 125.574 67.8973L125.348 67.6397L125.078 68.2679C125.067 68.2865 125.051 68.3016 125.032 68.3116C125.013 68.3216 124.992 68.3261 124.971 68.3244Z" fill="white"/>
<path d="M126.404 70.9128C126.374 70.9128 126.345 70.9008 126.324 70.8796C126.303 70.8584 126.291 70.8297 126.291 70.7997V66.7916C126.29 66.7762 126.292 66.7608 126.297 66.7464C126.303 66.7319 126.311 66.7187 126.322 66.7075C126.332 66.6963 126.345 66.6874 126.359 66.6814C126.373 66.6753 126.388 66.6722 126.404 66.6722C126.42 66.6713 126.436 66.6737 126.451 66.6794C126.465 66.6851 126.479 66.6939 126.49 66.7051C126.501 66.7164 126.51 66.7299 126.516 66.7448C126.522 66.7597 126.524 66.7756 126.523 66.7916V70.7997C126.523 70.8151 126.52 70.8303 126.514 70.8445C126.508 70.8586 126.499 70.8714 126.488 70.8819C126.477 70.8925 126.463 70.9007 126.449 70.906C126.435 70.9113 126.419 70.9136 126.404 70.9128Z" fill="white"/>
<path d="M126.064 67.7025H126.014C125.986 67.6888 125.963 67.6652 125.952 67.6361C125.94 67.6071 125.94 67.5747 125.951 67.5454L126.372 66.5779L126.843 67.1182C126.862 67.141 126.873 67.1699 126.873 67.1999C126.873 67.2298 126.862 67.2588 126.843 67.2816C126.832 67.2928 126.819 67.3017 126.804 67.3077C126.789 67.3138 126.774 67.3169 126.758 67.3169C126.742 67.3169 126.727 67.3138 126.712 67.3077C126.698 67.3017 126.684 67.2928 126.673 67.2816L126.453 67.024L126.183 67.6522C126.171 67.6718 126.153 67.6871 126.132 67.6961C126.11 67.7051 126.087 67.7073 126.064 67.7025Z" fill="white"/>
<path d="M113.681 80.6315L95.8208 70.3222V37.9054L113.681 48.221V80.6315Z" fill="#9D7E6A"/>
<path d="M99.4526 63.5813L104.931 66.7224C105.248 66.9292 105.512 67.2074 105.702 67.5347C105.891 67.8621 106.002 68.2294 106.024 68.6071V71.9933C106.024 72.6844 105.534 72.9671 104.931 72.6215L99.4526 69.4804C99.1357 69.274 98.8722 68.9958 98.6833 68.6683C98.4944 68.3407 98.3856 67.9732 98.3657 67.5957V64.2158C98.3657 63.4871 98.8557 63.2358 99.4526 63.5813Z" fill="#F5F5F5"/>
<path d="M99.0317 64.4231L99.2391 64.5488V68.2993L99.0317 68.1799V64.4231Z" fill="#E0E0E0"/>
<path d="M99.8799 64.9131L100.238 65.1267V68.8836L99.8799 68.67V64.9131Z" fill="#E0E0E0"/>
<path d="M100.721 65.4032L100.935 65.5225L100.929 69.2793L100.721 69.16V65.4032Z" fill="#E0E0E0"/>
<path d="M101.362 65.7675L101.777 66.0125V69.7693L101.362 69.5181V65.7675Z" fill="#E0E0E0"/>
<path d="M102.418 66.3832L102.625 66.5026V70.2594L102.418 70.1338V66.3832Z" fill="#E0E0E0"/>
<path d="M103.027 66.7287L103.473 66.9926V70.7431L103.027 70.4793V66.7287Z" fill="#E0E0E0"/>
<path d="M104.114 67.3569L104.322 67.4826V71.2331L104.114 71.1138V67.3569Z" fill="#E0E0E0"/>
<path d="M104.598 67.6334L104.704 67.6962V71.453L104.598 71.3902V67.6334Z" fill="#E0E0E0"/>
<path d="M103.731 67.1559L103.831 67.2188V70.9693L103.731 70.9128V67.1559Z" fill="#E0E0E0"/>
<path d="M102.022 66.157L102.122 66.2136V69.9704L102.022 69.9076V66.157Z" fill="#E0E0E0"/>
<path d="M101.086 65.6168L101.187 65.6796V69.4364L101.086 69.3736V65.6168Z" fill="#E0E0E0"/>
<path d="M100.414 65.2461L100.521 65.3089V69.0657L100.414 69.0029V65.2461Z" fill="#E0E0E0"/>
<path d="M99.5029 64.6933L99.6097 64.7561V68.5129L99.5029 68.4501V64.6933Z" fill="#E0E0E0"/>
<path d="M104.962 67.847L105.169 67.9664V71.7232L104.962 71.6038V67.847Z" fill="#E0E0E0"/>
<path d="M104.296 46.9834L106.024 47.9823V43.7983L104.296 42.7994V46.9834Z" fill="#F0F0F0"/>
<path d="M77.9545 71.7923L65.1951 64.4294L47.3345 74.7387L60.0939 82.1078L77.9545 71.7923Z" fill="#C49E85"/>
<path d="M60.0938 111.572L77.9544 101.263V71.7923L60.0938 82.1078V111.572Z" fill="#B08E78"/>
<path d="M63.0398 105.711C62.9599 105.712 62.8813 105.69 62.8136 105.648C62.715 105.577 62.6365 105.482 62.5858 105.372C62.5351 105.262 62.514 105.14 62.5246 105.019V103.135V102.997H62.6189L64.0889 102.136V104.228C64.0859 104.497 64.0187 104.762 63.8931 105C63.7675 105.238 63.587 105.443 63.3665 105.597C63.2694 105.663 63.1568 105.702 63.0398 105.711ZM62.7634 103.279V105.013C62.7517 105.094 62.7612 105.176 62.7909 105.252C62.8207 105.328 62.8696 105.395 62.933 105.447C62.9844 105.467 63.04 105.474 63.0948 105.467C63.1497 105.461 63.202 105.441 63.2471 105.409C63.4353 105.278 63.5901 105.104 63.6992 104.902C63.8082 104.701 63.8686 104.476 63.8753 104.247V104.096H63.3288L63.222 103.361L62.7634 103.279ZM63.5173 103.857H63.8565V102.563L62.977 103.078L63.4105 103.154L63.5173 103.857Z" fill="white"/>
<path d="M63.3098 107.206C63.2781 107.206 63.2478 107.193 63.2254 107.171C63.203 107.148 63.1904 107.118 63.1904 107.086V105.509C63.1904 105.494 63.1935 105.479 63.1996 105.465C63.2057 105.451 63.2146 105.438 63.2257 105.427C63.2369 105.417 63.2501 105.408 63.2646 105.403C63.279 105.398 63.2944 105.396 63.3098 105.396C63.3398 105.396 63.3685 105.408 63.3898 105.43C63.411 105.451 63.4229 105.479 63.4229 105.509V107.086C63.4229 107.117 63.4112 107.146 63.3902 107.169C63.3691 107.191 63.3404 107.204 63.3098 107.206Z" fill="white"/>
<path d="M62.6252 107.595C62.6048 107.596 62.5844 107.592 62.5666 107.582C62.5488 107.572 62.5342 107.557 62.5247 107.539C62.5156 107.526 62.5094 107.511 62.5064 107.495C62.5034 107.48 62.5037 107.464 62.5073 107.449C62.5108 107.433 62.5176 107.419 62.5271 107.406C62.5365 107.393 62.5486 107.383 62.5624 107.375L63.9319 106.59C63.9455 106.582 63.9605 106.577 63.9761 106.575C63.9917 106.573 64.0075 106.574 64.0227 106.578C64.0379 106.582 64.0521 106.589 64.0645 106.599C64.077 106.608 64.0874 106.62 64.0952 106.634C64.103 106.647 64.108 106.662 64.1099 106.677C64.1119 106.692 64.1108 106.707 64.1067 106.722C64.1026 106.737 64.0956 106.75 64.086 106.762C64.0765 106.774 64.0647 106.784 64.0513 106.791L62.6817 107.583C62.6647 107.593 62.6449 107.597 62.6252 107.595Z" fill="white"/>
<path d="M67.5009 104.888C67.455 104.888 67.4098 104.877 67.369 104.856C67.3231 104.825 67.2862 104.783 67.2619 104.733C67.2376 104.684 67.2269 104.629 67.2307 104.573V104.247C67.2307 104.217 67.2427 104.188 67.2639 104.167C67.2851 104.146 67.3138 104.134 67.3438 104.134C67.3592 104.133 67.3746 104.135 67.389 104.14C67.4035 104.146 67.4167 104.154 67.4279 104.164C67.4391 104.175 67.448 104.188 67.454 104.202C67.4601 104.216 67.4632 104.231 67.4632 104.247V104.573C67.4632 104.617 67.4632 104.643 67.4632 104.649C67.4632 104.655 67.5009 104.649 67.5386 104.649C67.6106 104.58 67.6674 104.497 67.7053 104.405C67.7432 104.313 67.7613 104.214 67.7585 104.115V102.023C67.7544 102.005 67.7543 101.987 67.7582 101.97C67.7621 101.952 67.77 101.936 67.7812 101.921C67.7923 101.907 67.8065 101.896 67.8227 101.888C67.8389 101.88 67.8567 101.876 67.8747 101.876C67.8927 101.876 67.9104 101.88 67.9266 101.888C67.9428 101.896 67.957 101.907 67.9682 101.921C67.9794 101.936 67.9872 101.952 67.9912 101.97C67.9951 101.987 67.995 102.005 67.9909 102.023V104.115C67.9961 104.255 67.9687 104.394 67.9109 104.521C67.8531 104.649 67.7665 104.761 67.6579 104.85C67.6091 104.874 67.5554 104.887 67.5009 104.888Z" fill="white"/>
<path d="M66.2568 103.066V102.858C66.2866 102.336 66.4385 101.828 66.7004 101.375C66.9623 100.922 67.3268 100.537 67.7646 100.251C67.9206 100.118 68.1142 100.036 68.3186 100.017C68.523 99.9984 68.7282 100.043 68.906 100.146C69.0837 100.249 69.2253 100.404 69.3112 100.59C69.397 100.777 69.423 100.985 69.3854 101.187V101.256L66.2568 103.066ZM68.4682 100.27C68.261 100.28 68.0598 100.342 67.884 100.452C67.5101 100.699 67.1934 101.023 66.955 101.402C66.7166 101.781 66.5621 102.207 66.5018 102.651L69.153 101.118C69.1618 100.97 69.1331 100.822 69.0694 100.688C69.0056 100.554 68.9091 100.438 68.7886 100.352C68.6927 100.297 68.5848 100.267 68.4745 100.264L68.4682 100.27Z" fill="white"/>
<path d="M71.7282 102.475C71.6966 102.475 71.6662 102.463 71.6438 102.44C71.6215 102.418 71.6089 102.387 71.6089 102.356V98.3476C71.6089 98.316 71.6215 98.2856 71.6438 98.2632C71.6662 98.2408 71.6966 98.2283 71.7282 98.2283C71.7599 98.2283 71.7903 98.2408 71.8126 98.2632C71.835 98.2856 71.8476 98.316 71.8476 98.3476V102.356C71.8476 102.387 71.835 102.418 71.8126 102.44C71.7903 102.463 71.7599 102.475 71.7282 102.475Z" fill="white"/>
<path d="M71.3829 99.2963H71.3389C71.3247 99.2908 71.3117 99.2824 71.3008 99.2718C71.2898 99.2611 71.2812 99.2484 71.2753 99.2343C71.2694 99.2202 71.2665 99.2051 71.2666 99.1898C71.2667 99.1745 71.27 99.1595 71.2761 99.1455L71.697 98.178L72.1619 98.7183C72.1819 98.7416 72.1918 98.7719 72.1894 98.8026C72.1871 98.8332 72.1726 98.8616 72.1493 98.8816C72.1378 98.8915 72.1244 98.8991 72.1099 98.9038C72.0955 98.9085 72.0802 98.9103 72.065 98.9092C72.0344 98.9068 72.006 98.8924 71.986 98.8691L71.7598 98.6115L71.4897 99.2397C71.479 99.2583 71.4634 99.2734 71.4445 99.2835C71.4256 99.2935 71.4042 99.2979 71.3829 99.2963Z" fill="white"/>
<path d="M72.8152 101.853C72.7846 101.853 72.7551 101.841 72.7329 101.82C72.7107 101.799 72.6974 101.771 72.6958 101.74V97.7319C72.6958 97.7003 72.7084 97.6699 72.7308 97.6475C72.7531 97.6252 72.7835 97.6126 72.8152 97.6126C72.8311 97.6117 72.847 97.6141 72.8619 97.6198C72.8768 97.6255 72.8903 97.6342 72.9016 97.6455C72.9129 97.6568 72.9216 97.6703 72.9273 97.6852C72.933 97.7001 72.9354 97.716 72.9345 97.7319V101.74C72.9346 101.755 72.9314 101.771 72.9254 101.785C72.9193 101.799 72.9104 101.812 72.8992 101.822C72.888 101.833 72.8748 101.841 72.8604 101.846C72.8459 101.852 72.8305 101.854 72.8152 101.853Z" fill="white"/>
<path d="M72.4698 98.668C72.4556 98.6733 72.44 98.6733 72.4258 98.668C72.4116 98.6625 72.3986 98.6542 72.3877 98.6435C72.3767 98.6329 72.3681 98.6201 72.3622 98.606C72.3563 98.5919 72.3534 98.5768 72.3535 98.5616C72.3537 98.5463 72.3569 98.5312 72.363 98.5172L72.7839 97.5498L73.2488 98.09C73.2696 98.1122 73.2811 98.1414 73.2811 98.1717C73.2811 98.2021 73.2696 98.2312 73.2488 98.2534C73.2377 98.2646 73.2245 98.2735 73.2099 98.2796C73.1954 98.2856 73.1798 98.2887 73.164 98.2887C73.1482 98.2887 73.1326 98.2856 73.118 98.2796C73.1035 98.2735 73.0903 98.2646 73.0792 98.2534L72.8593 97.9958L72.5892 98.624C72.5754 98.6419 72.5569 98.6555 72.5358 98.6632C72.5147 98.671 72.4918 98.6727 72.4698 98.668Z" fill="white"/>
<path d="M60.0939 111.572L47.3345 104.209V74.7387L60.0939 82.1078V111.572Z" fill="#9D7E6A"/>
<path d="M53.2588 82.3466L54.9864 83.3454V79.1614L53.2588 78.1625V82.3466Z" fill="#F5F5F5"/>
<path d="M54.9864 79.1614L72.8533 68.8459L71.1194 67.847L53.2588 78.1625L54.9864 79.1614Z" fill="white"/>
<path d="M54.9862 96.8398L32.0243 83.5842L9.05615 96.8398L32.0243 110.102L54.9862 96.8398Z" fill="#C49E85"/>
<path d="M32.0239 127.78L54.9858 114.525V96.8398L32.0239 110.102V127.78Z" fill="#B08E78"/>
<path d="M34.9707 121.913C34.8912 121.911 34.8134 121.889 34.7445 121.85C34.6463 121.779 34.5681 121.684 34.5175 121.574C34.4669 121.464 34.4455 121.342 34.4555 121.222V119.337V119.199H34.5498L36.0198 118.332V120.43C36.0157 120.698 35.9481 120.961 35.8226 121.198C35.697 121.435 35.517 121.639 35.2974 121.793C35.2007 121.861 35.0881 121.902 34.9707 121.913ZM34.688 119.481V121.215C34.6768 121.295 34.6866 121.376 34.7163 121.451C34.746 121.526 34.7947 121.592 34.8576 121.642C34.909 121.666 34.9658 121.675 35.022 121.67C35.0783 121.664 35.1321 121.644 35.178 121.611C35.3654 121.479 35.5197 121.305 35.6287 121.104C35.7377 120.902 35.7985 120.678 35.8062 120.449V120.292H35.2408L35.134 119.557L34.688 119.481ZM35.4418 120.059H35.8062V118.771L34.933 119.287L35.3665 119.362L35.4418 120.059Z" fill="white"/>
<path d="M35.2344 123.408C35.2195 123.408 35.2048 123.405 35.1911 123.399C35.1774 123.393 35.1649 123.385 35.1544 123.375C35.1439 123.364 35.1356 123.352 35.1299 123.338C35.1242 123.324 35.1213 123.31 35.1213 123.295V121.718C35.1172 121.7 35.1171 121.682 35.121 121.665C35.125 121.647 35.1328 121.631 35.144 121.616C35.1552 121.602 35.1694 121.591 35.1856 121.583C35.2018 121.575 35.2195 121.571 35.2375 121.571C35.2555 121.571 35.2733 121.575 35.2895 121.583C35.3057 121.591 35.3199 121.602 35.3311 121.616C35.3422 121.631 35.3501 121.647 35.354 121.665C35.3579 121.682 35.3578 121.7 35.3537 121.718V123.295C35.3538 123.31 35.3507 123.325 35.3446 123.339C35.3385 123.354 35.3296 123.366 35.3184 123.377C35.3073 123.388 35.294 123.396 35.2796 123.401C35.2651 123.406 35.2498 123.409 35.2344 123.408Z" fill="white"/>
<path d="M34.5499 123.797C34.5247 123.796 34.5007 123.786 34.4813 123.77C34.4619 123.754 34.448 123.732 34.4417 123.708C34.4355 123.683 34.4371 123.658 34.4464 123.634C34.4556 123.611 34.4721 123.591 34.4933 123.577L35.8629 122.792C35.8753 122.783 35.8896 122.777 35.9046 122.774C35.9196 122.771 35.9351 122.771 35.95 122.775C35.9649 122.779 35.9789 122.785 35.9909 122.795C36.003 122.804 36.0129 122.816 36.0199 122.83C36.029 122.843 36.0352 122.857 36.0382 122.873C36.0412 122.888 36.0409 122.904 36.0373 122.92C36.0338 122.935 36.027 122.95 36.0175 122.962C36.0081 122.975 35.996 122.985 35.9823 122.993L34.6127 123.797H34.5499Z" fill="white"/>
<path d="M39.4249 121.096C39.3835 121.105 39.3406 121.105 39.2992 121.096C39.2512 121.065 39.2124 121.022 39.187 120.971C39.1615 120.92 39.1504 120.864 39.1547 120.807V120.486C39.1547 120.455 39.1673 120.424 39.1897 120.402C39.2121 120.38 39.2424 120.367 39.2741 120.367C39.3057 120.367 39.3361 120.38 39.3585 120.402C39.3809 120.424 39.3935 120.455 39.3935 120.486V120.807C39.3848 120.833 39.3848 120.862 39.3935 120.889C39.3935 120.889 39.4311 120.889 39.4751 120.889C39.546 120.819 39.6016 120.736 39.6384 120.644C39.6752 120.552 39.6923 120.454 39.6887 120.355V118.263C39.6902 118.231 39.7033 118.202 39.7254 118.18C39.7474 118.158 39.7769 118.145 39.8081 118.143C39.8397 118.143 39.8701 118.156 39.8925 118.178C39.9149 118.201 39.9275 118.231 39.9275 118.263V120.355C39.9326 120.494 39.9052 120.634 39.8475 120.761C39.7897 120.889 39.7031 121.001 39.5945 121.09C39.5392 121.105 39.4811 121.107 39.4249 121.096Z" fill="white"/>
<path d="M38.187 119.268V119.06C38.2143 118.538 38.3652 118.029 38.6273 117.575C38.8894 117.122 39.2552 116.738 39.6948 116.453C39.8508 116.32 40.0444 116.238 40.2488 116.219C40.4532 116.2 40.6584 116.246 40.8362 116.348C41.0139 116.451 41.1555 116.606 41.2413 116.793C41.3272 116.979 41.3532 117.187 41.3156 117.389V117.458L38.187 119.268ZM40.3984 116.472C40.1894 116.483 39.9865 116.545 39.8079 116.654C39.4352 116.902 39.1197 117.226 38.8824 117.605C38.6451 117.984 38.4916 118.41 38.432 118.853L41.0769 117.32C41.087 117.173 41.0595 117.025 40.9968 116.891C40.9342 116.757 40.8385 116.641 40.7188 116.554C40.6212 116.498 40.5106 116.47 40.3984 116.472Z" fill="white"/>
<path d="M43.6591 118.683C43.6432 118.684 43.6273 118.682 43.6124 118.676C43.5975 118.671 43.584 118.662 43.5727 118.651C43.5614 118.639 43.5527 118.626 43.547 118.611C43.5413 118.596 43.5388 118.58 43.5398 118.564V114.556C43.5357 114.538 43.5356 114.52 43.5395 114.503C43.5434 114.485 43.5513 114.469 43.5625 114.455C43.5736 114.441 43.5878 114.429 43.604 114.421C43.6202 114.413 43.638 114.409 43.656 114.409C43.674 114.409 43.6917 114.413 43.7079 114.421C43.7241 114.429 43.7383 114.441 43.7495 114.455C43.7607 114.469 43.7685 114.485 43.7725 114.503C43.7764 114.52 43.7763 114.538 43.7722 114.556V118.564C43.7731 118.579 43.7708 118.595 43.7655 118.609C43.7602 118.624 43.752 118.637 43.7414 118.648C43.7308 118.659 43.718 118.668 43.7039 118.674C43.6898 118.68 43.6745 118.683 43.6591 118.683Z" fill="white"/>
<path d="M43.3454 115.473H43.2951C43.2807 115.467 43.2676 115.458 43.2568 115.447C43.2459 115.435 43.2376 115.422 43.2323 115.407C43.2269 115.392 43.2248 115.377 43.2259 115.361C43.227 115.345 43.2313 115.33 43.2386 115.316L43.6532 114.349L44.1244 114.889C44.1452 114.913 44.1556 114.945 44.1533 114.976C44.1509 115.008 44.136 115.038 44.1119 115.059C44.0877 115.079 44.0562 115.09 44.0244 115.087C43.9926 115.085 43.9631 115.07 43.9422 115.046L43.7223 114.788L43.4522 115.417C43.441 115.435 43.4253 115.449 43.4065 115.459C43.3877 115.469 43.3666 115.474 43.3454 115.473Z" fill="white"/>
<path d="M44.7463 118.062C44.7147 118.062 44.6843 118.049 44.6619 118.027C44.6395 118.004 44.627 117.974 44.627 117.942V113.934C44.627 113.902 44.6395 113.872 44.6619 113.85C44.6843 113.827 44.7147 113.815 44.7463 113.815C44.778 113.815 44.8083 113.827 44.8307 113.85C44.8531 113.872 44.8657 113.902 44.8657 113.934V117.942C44.8657 117.974 44.8531 118.004 44.8307 118.027C44.8083 118.049 44.778 118.062 44.7463 118.062Z" fill="white"/>
<path d="M44.4005 114.851H44.3565C44.3422 114.846 44.3293 114.837 44.3183 114.827C44.3074 114.816 44.2987 114.803 44.2929 114.789C44.287 114.775 44.2841 114.76 44.2842 114.745C44.2843 114.73 44.2875 114.714 44.2937 114.701L44.7146 113.727L45.1795 114.267C45.1907 114.278 45.1996 114.291 45.2056 114.306C45.2117 114.32 45.2148 114.336 45.2148 114.352C45.2148 114.368 45.2117 114.383 45.2056 114.398C45.1996 114.412 45.1907 114.426 45.1795 114.437C45.1689 114.448 45.1562 114.456 45.1422 114.462C45.1282 114.468 45.1131 114.472 45.0978 114.472C45.0825 114.472 45.0674 114.468 45.0534 114.462C45.0394 114.456 45.0267 114.448 45.0161 114.437L44.79 114.179L44.5198 114.807C44.5066 114.826 44.4882 114.84 44.4669 114.848C44.4456 114.856 44.4225 114.857 44.4005 114.851Z" fill="white"/>
<path d="M32.0243 127.78L9.05615 114.525V96.8398L32.0243 110.102V127.78Z" fill="#9D7E6A"/>
<path d="M19.6733 107.155L21.401 108.154V103.97L19.6733 102.971V107.155Z" fill="#F5F5F5"/>
<path d="M21.401 103.97L44.3691 90.7146L42.6415 89.7094L19.6733 102.971L21.401 103.97Z" fill="white"/>
<path d="M12.6938 107.784L18.172 110.925C18.4889 111.132 18.7529 111.41 18.9427 111.737C19.1326 112.064 19.243 112.432 19.2651 112.81V116.196C19.2651 116.887 18.7751 117.169 18.172 116.824L12.6938 113.683C12.377 113.476 12.1134 113.198 11.9245 112.871C11.7356 112.543 11.6268 112.176 11.6069 111.798V108.418C11.6069 107.715 12.097 107.463 12.6938 107.784Z" fill="#F5F5F5"/>
<path d="M12.2725 108.626L12.4798 108.745V112.502L12.2725 112.382V108.626Z" fill="#E0E0E0"/>
<path d="M13.1143 109.116L13.4786 109.329V113.08L13.1143 112.872V109.116Z" fill="#E0E0E0"/>
<path d="M13.9624 109.606L14.176 109.725L14.1697 113.482L13.9624 113.362V109.606Z" fill="#E0E0E0"/>
<path d="M14.6035 109.97L15.0244 110.215L15.0182 113.972L14.6035 113.72V109.97Z" fill="#E0E0E0"/>
<path d="M15.6592 110.586L15.8665 110.705V114.462L15.6592 114.336V110.586Z" fill="#E0E0E0"/>
<path d="M16.2681 110.931L16.7141 111.195V114.945L16.2681 114.682V110.931Z" fill="#E0E0E0"/>
<path d="M17.3555 111.566L17.5628 111.685V115.436L17.3555 115.316V111.566Z" fill="#E0E0E0"/>
<path d="M17.8389 111.836L17.9457 111.899V115.649L17.8389 115.593V111.836Z" fill="#E0E0E0"/>
<path d="M16.9717 111.358L17.0722 111.415V115.172L16.9717 115.115V111.358Z" fill="#E0E0E0"/>
<path d="M15.2632 110.359L15.3637 110.416V114.173L15.2632 114.11V110.359Z" fill="#E0E0E0"/>
<path d="M14.3276 109.819L14.4344 109.882V113.633L14.3276 113.576V109.819Z" fill="#E0E0E0"/>
<path d="M13.6548 109.448L13.7616 109.511V113.268L13.6548 113.205V109.448Z" fill="#E0E0E0"/>
<path d="M12.7441 108.896L12.8509 108.958V112.709L12.7441 112.652V108.896Z" fill="#E0E0E0"/>
<path d="M18.2031 112.049L18.4104 112.175V115.926L18.2031 115.806V112.049Z" fill="#E0E0E0"/>
<path d="M49.8848 61.483L32.0241 51.1674L14.1572 61.483L32.0241 71.7923L49.8848 61.483Z" fill="#C49E85"/>
<path d="M32.0239 107.155L49.8846 96.8399V61.483L32.0239 71.7923V107.155Z" fill="#B08E78"/>
<path d="M34.9707 101.288C34.8917 101.288 34.8139 101.269 34.7445 101.231C34.6463 101.16 34.5681 101.065 34.5175 100.955C34.4669 100.845 34.4455 100.724 34.4555 100.603V98.7183V98.5801H34.5498L36.0198 97.7194V99.8114C36.0162 100.081 35.9489 100.345 35.8233 100.583C35.6977 100.821 35.5175 101.026 35.2974 101.181C35.1997 101.245 35.087 101.281 34.9707 101.288ZM34.688 98.8565V100.597C34.678 100.676 34.6883 100.757 34.718 100.832C34.7476 100.907 34.7957 100.973 34.8576 101.024C34.909 101.047 34.9658 101.057 35.022 101.051C35.0783 101.046 35.1321 101.026 35.178 100.992C35.3656 100.859 35.5198 100.684 35.6288 100.482C35.7378 100.279 35.7985 100.054 35.8062 99.824V99.6732H35.2408L35.134 98.9382L34.688 98.8565ZM35.4418 99.4345H35.8062V98.1466L34.933 98.6617L35.3665 98.7371L35.4418 99.4345Z" fill="white"/>
<path d="M35.2343 102.783C35.219 102.783 35.2037 102.78 35.1896 102.774C35.1754 102.768 35.1627 102.759 35.1521 102.748C35.1415 102.736 35.1333 102.723 35.128 102.709C35.1227 102.694 35.1204 102.679 35.1213 102.664V101.093C35.1204 101.078 35.1227 101.062 35.128 101.048C35.1333 101.033 35.1415 101.02 35.1521 101.009C35.1627 100.998 35.1754 100.989 35.1896 100.983C35.2037 100.977 35.219 100.974 35.2343 100.974C35.2503 100.973 35.2662 100.975 35.2811 100.981C35.296 100.987 35.3095 100.995 35.3208 101.007C35.332 101.018 35.3408 101.031 35.3465 101.046C35.3522 101.061 35.3546 101.077 35.3537 101.093V102.664C35.3546 102.679 35.3522 102.695 35.3465 102.71C35.3408 102.725 35.332 102.739 35.3208 102.75C35.3095 102.761 35.296 102.77 35.2811 102.776C35.2662 102.781 35.2503 102.784 35.2343 102.783Z" fill="white"/>
<path d="M34.5499 103.179C34.5247 103.177 34.5007 103.168 34.4813 103.152C34.4619 103.136 34.448 103.114 34.4417 103.089C34.4355 103.065 34.4371 103.039 34.4464 103.016C34.4556 102.992 34.4721 102.972 34.4933 102.959L35.8629 102.167C35.8904 102.151 35.923 102.147 35.9537 102.155C35.9843 102.164 36.0104 102.184 36.0262 102.211C36.0421 102.239 36.0463 102.271 36.0381 102.302C36.0298 102.333 36.0097 102.359 35.9823 102.375L34.6127 103.16C34.5943 103.173 34.5723 103.179 34.5499 103.179Z" fill="white"/>
<path d="M39.425 100.471C39.3803 100.471 39.3365 100.458 39.2993 100.433C39.2513 100.404 39.2124 100.362 39.1868 100.313C39.1613 100.263 39.1502 100.207 39.1548 100.151V99.8302C39.1548 99.7986 39.1674 99.7682 39.1898 99.7458C39.2122 99.7235 39.2425 99.7109 39.2742 99.7109C39.3058 99.7109 39.3362 99.7235 39.3586 99.7458C39.381 99.7682 39.3935 99.7986 39.3935 99.8302V100.151C39.3849 100.177 39.3849 100.206 39.3935 100.232C39.4203 100.24 39.4485 100.24 39.4752 100.232C39.5469 100.165 39.6032 100.083 39.64 99.9919C39.6769 99.9008 39.6936 99.8028 39.6888 99.7046V97.6126C39.6888 97.5809 39.7014 97.5506 39.7238 97.5282C39.7462 97.5058 39.7765 97.4932 39.8082 97.4932C39.8241 97.4923 39.84 97.4948 39.8549 97.5005C39.8698 97.5061 39.8833 97.5149 39.8946 97.5262C39.9059 97.5374 39.9146 97.551 39.9203 97.5659C39.926 97.5807 39.9285 97.5967 39.9275 97.6126V99.7046C39.9327 99.8445 39.9053 99.9837 39.8476 100.111C39.7898 100.239 39.7032 100.351 39.5946 100.44C39.5414 100.464 39.4832 100.474 39.425 100.471Z" fill="white"/>
<path d="M38.187 98.668V98.467C38.2153 97.9435 38.3666 97.4341 38.6285 96.9801C38.8905 96.526 39.2558 96.1401 39.6948 95.8536C39.8522 95.7232 40.0458 95.6443 40.2495 95.6274C40.4532 95.6106 40.6572 95.6567 40.8339 95.7594C41.0106 95.8621 41.1515 96.0166 41.2376 96.2019C41.3238 96.3873 41.351 96.5946 41.3156 96.7959V96.8587L38.187 98.668ZM40.3984 95.8787C40.1894 95.8893 39.9865 95.9519 39.8079 96.0609C39.4359 96.3076 39.1208 96.6308 38.8836 97.0088C38.6464 97.3869 38.4924 97.8112 38.432 98.2534L41.0769 96.7268C41.0882 96.579 41.0612 96.4308 40.9985 96.2965C40.9358 96.1623 40.8394 96.0465 40.7188 95.9604C40.6244 95.8939 40.5135 95.8548 40.3984 95.8473V95.8787Z" fill="white"/>
<path d="M43.6591 98.0398C43.6275 98.0398 43.5971 98.0272 43.5747 98.0048C43.5523 97.9824 43.5398 97.9521 43.5398 97.9204V93.9123C43.5357 93.8948 43.5356 93.8766 43.5395 93.859C43.5434 93.8415 43.5513 93.825 43.5625 93.8109C43.5736 93.7969 43.5878 93.7855 43.604 93.7776C43.6202 93.7698 43.638 93.7657 43.656 93.7657C43.674 93.7657 43.6917 93.7698 43.7079 93.7776C43.7241 93.7855 43.7383 93.7969 43.7495 93.8109C43.7607 93.825 43.7685 93.8415 43.7725 93.859C43.7764 93.8766 43.7763 93.8948 43.7722 93.9123V97.9204C43.7723 97.951 43.7605 97.9805 43.7395 98.0027C43.7185 98.0249 43.6897 98.0382 43.6591 98.0398Z" fill="white"/>
<path d="M43.3454 94.8421H43.2951C43.2807 94.836 43.2676 94.827 43.2568 94.8157C43.2459 94.8043 43.2376 94.7908 43.2323 94.776C43.2269 94.7612 43.2248 94.7455 43.2259 94.7299C43.227 94.7142 43.2313 94.6989 43.2386 94.685L43.6532 93.7175L44.1244 94.2578C44.1452 94.28 44.1567 94.3092 44.1567 94.3395C44.1567 94.3698 44.1452 94.399 44.1244 94.4212C44.1013 94.4424 44.071 94.4541 44.0396 94.4541C44.0082 94.4541 43.978 94.4424 43.9548 94.4212L43.7349 94.1636L43.4648 94.7918C43.4524 94.8114 43.4343 94.8267 43.413 94.8357C43.3917 94.8447 43.3681 94.8469 43.3454 94.8421Z" fill="white"/>
<path d="M44.7463 97.4115C44.7152 97.41 44.6857 97.397 44.6636 97.3749C44.6415 97.3528 44.6285 97.3233 44.627 97.2922V93.2841C44.627 93.2524 44.6395 93.222 44.6619 93.1997C44.6843 93.1773 44.7147 93.1647 44.7463 93.1647C44.778 93.1647 44.8083 93.1773 44.8307 93.1997C44.8531 93.222 44.8657 93.2524 44.8657 93.2841V97.2922C44.8642 97.3233 44.8511 97.3528 44.829 97.3749C44.807 97.397 44.7775 97.41 44.7463 97.4115Z" fill="white"/>
<path d="M44.4007 94.2264H44.3568C44.3423 94.2202 44.3292 94.2113 44.3182 94.2C44.3072 94.1888 44.2986 94.1755 44.2927 94.1609C44.2869 94.1463 44.284 94.1307 44.2842 94.115C44.2844 94.0993 44.2877 94.0838 44.2939 94.0693L44.7148 93.1019L45.1797 93.6421C45.1909 93.6532 45.1998 93.6665 45.2059 93.681C45.212 93.6956 45.2151 93.7112 45.2151 93.727C45.2151 93.7427 45.212 93.7583 45.2059 93.7729C45.1998 93.7875 45.1909 93.8007 45.1797 93.8118C45.157 93.8312 45.128 93.8419 45.0981 93.8419C45.0681 93.8419 45.0392 93.8312 45.0164 93.8118L44.7902 93.5542L44.5201 94.1824C44.5064 94.2003 44.4879 94.2139 44.4668 94.2216C44.4456 94.2294 44.4227 94.2311 44.4007 94.2264Z" fill="white"/>
<path d="M32.0241 107.155L14.1572 96.8399V61.483L32.0241 71.7923V107.155Z" fill="#9D7E6A"/>
<path d="M22.6323 70.5547L24.3662 71.5535V67.3758L22.6323 66.3706V70.5547Z" fill="#F5F5F5"/>
<path d="M24.3662 67.3758L42.2269 57.0603L40.4992 56.0614L22.6323 66.3706L24.3662 67.3758Z" fill="white"/>
<path d="M17.7948 90.0989L23.273 93.2401C23.5901 93.446 23.854 93.7242 24.0429 94.0518C24.2318 94.3794 24.3404 94.7471 24.3598 95.1248V98.5047C24.3598 99.1957 23.8761 99.4784 23.273 99.1329L17.7948 95.9917C17.4768 95.7861 17.212 95.5081 17.022 95.1806C16.832 94.853 16.7223 94.4851 16.7017 94.107V90.7271C16.7079 90.0361 17.1917 89.7534 17.7948 90.0989Z" fill="#F5F5F5"/>
<path d="M17.3682 90.9471L17.5755 91.0664V94.8232L17.3682 94.6976V90.9471Z" fill="#E0E0E0"/>
<path d="M18.2158 91.4371L18.5739 91.6444V95.4012L18.2158 95.1876V91.4371Z" fill="#E0E0E0"/>
<path d="M19.064 91.9208L19.2713 92.0465V95.797L19.064 95.6776V91.9208Z" fill="#E0E0E0"/>
<path d="M19.7046 92.2852L20.1192 92.5365V96.287L19.7046 96.042V92.2852Z" fill="#E0E0E0"/>
<path d="M20.7603 92.9008L20.9676 93.0202V96.777L20.7603 96.6577V92.9008Z" fill="#E0E0E0"/>
<path d="M21.3691 93.2464L21.8152 93.5102V97.2671L21.3691 97.0032V93.2464Z" fill="#E0E0E0"/>
<path d="M22.4565 93.8809L22.6639 94.0003V97.7571L22.4565 97.6314V93.8809Z" fill="#E0E0E0"/>
<path d="M22.9399 94.1573L23.0405 94.2139V97.9707L22.9399 97.9079V94.1573Z" fill="#E0E0E0"/>
<path d="M22.0669 93.6736L22.1737 93.7364V97.4932L22.0669 97.4304V93.6736Z" fill="#E0E0E0"/>
<path d="M20.3584 92.6747L20.4652 92.7375V96.488L20.3584 96.4315V92.6747Z" fill="#E0E0E0"/>
<path d="M19.4219 92.1407L19.5287 92.1972V95.9541L19.4219 95.8912V92.1407Z" fill="#E0E0E0"/>
<path d="M18.7559 91.7701L18.8564 91.8266V95.5834L18.7559 95.5206V91.7701Z" fill="#E0E0E0"/>
<path d="M17.8457 91.2172L17.9462 91.2737V95.0306L17.8457 94.9677V91.2172Z" fill="#E0E0E0"/>
<path d="M23.2983 94.3709L23.5119 94.4903V98.2408L23.2983 98.1215V94.3709Z" fill="#E0E0E0"/>
<path d="M14.3263 158.821L82.8915 198.4C83.7345 198.827 84.6665 199.05 85.6117 199.05C86.557 199.05 87.489 198.827 88.332 198.4L238.561 111.704C240.062 110.837 240.062 109.43 238.561 108.563L169.996 68.9841C169.154 68.5534 168.221 68.3289 167.276 68.3289C166.33 68.3289 165.397 68.5534 164.555 68.9841L14.3263 155.68C12.8248 156.547 12.8248 157.954 14.3263 158.821Z" fill="#455A64"/>
<path d="M51.3864 177.197C52.5554 177.787 53.8464 178.094 55.1558 178.094C56.4651 178.094 57.7562 177.787 58.9252 177.197C61.0172 175.991 61.0172 174.056 58.9252 172.831C57.7571 172.238 56.4657 171.929 55.1558 171.929C53.8459 171.929 52.5545 172.238 51.3864 172.831C49.2944 174.056 49.2944 176.003 51.3864 177.197Z" fill="#263238"/>
<path d="M84.18 198.4L15.6148 158.821C14.2704 158.042 14.1321 156.836 15.1939 155.969C14.5233 156.499 13.9719 157.165 13.5757 157.923C13.1796 158.681 12.9475 159.513 12.8945 160.367V162.924C12.9461 163.867 13.2193 164.786 13.6918 165.604C14.1644 166.423 14.8232 167.119 15.6148 167.635L84.18 207.214C85.0183 207.652 85.9547 207.868 86.9002 207.842V199.053C85.9525 199.071 85.016 198.846 84.18 198.4Z" fill="#37474F"/>
<path d="M238.555 120.512C239.349 119.996 240.009 119.301 240.483 118.482C240.957 117.664 241.231 116.744 241.282 115.8V113.243C241.231 112.389 240.999 111.555 240.601 110.796C240.204 110.038 239.65 109.373 238.976 108.845C240.044 109.712 239.906 110.919 238.562 111.691L88.3325 198.4C87.4936 198.836 86.5576 199.052 85.6123 199.028V207.867C86.5576 207.891 87.4936 207.675 88.3325 207.239L238.555 120.512Z" fill="#263238"/>
<path d="M94.1873 190.201L28.5623 152.294C27.6576 151.772 27.6576 150.924 28.5623 150.409L155.415 77.1511C155.921 76.894 156.481 76.76 157.048 76.76C157.616 76.76 158.176 76.894 158.682 77.1511L224.332 115.052C225.23 115.574 225.23 116.416 224.332 116.937L97.429 190.201C96.9262 190.454 96.3711 190.586 95.8082 190.586C95.2453 190.586 94.6902 190.454 94.1873 190.201Z" fill="white"/>
<path d="M67.7454 169.036L75.4036 164.614L72.853 163.143L65.1948 167.56L67.7454 169.036Z" fill="#C49E85"/>
<path d="M159.618 115.995L167.276 111.572L164.719 110.102L157.067 114.525L159.618 115.995Z" fill="#C49E85"/>
<path d="M174.928 107.155L182.586 102.733L180.036 101.263L172.377 105.679L174.928 107.155Z" fill="#C49E85"/>
<path d="M199.504 91.6695C199.801 91.8183 200.129 91.8957 200.462 91.8957C200.794 91.8957 201.122 91.8183 201.42 91.6695C201.535 91.6301 201.635 91.5556 201.706 91.4565C201.777 91.3574 201.815 91.2385 201.815 91.1167C201.815 90.9948 201.777 90.876 201.706 90.7769C201.635 90.6777 201.535 90.6033 201.42 90.5638C201.123 90.4122 200.795 90.3331 200.462 90.3331C200.129 90.3331 199.8 90.4122 199.504 90.5638C199.388 90.6033 199.288 90.6777 199.217 90.7769C199.146 90.876 199.108 90.9948 199.108 91.1167C199.108 91.2385 199.146 91.3574 199.217 91.4565C199.288 91.5556 199.388 91.6301 199.504 91.6695Z" fill="#263238"/>
<path d="M202.564 100.345C203.157 100.646 203.812 100.802 204.476 100.802C205.141 100.802 205.797 100.646 206.389 100.345C207.445 99.7172 207.445 98.7434 206.389 98.134C205.797 97.8337 205.141 97.6773 204.476 97.6773C203.812 97.6773 203.157 97.8337 202.564 98.134C201.508 98.7434 201.508 99.736 202.564 100.345Z" fill="#263238"/>
<path d="M199.862 96.5006C200.566 96.0923 200.528 95.4138 199.78 94.9803L187.216 87.7117C186.811 87.4949 186.361 87.3773 185.902 87.3685C185.444 87.3598 184.989 87.4602 184.577 87.6614C183.873 88.0698 183.911 88.7482 184.659 89.1817L197.261 96.4504C197.661 96.6605 198.104 96.7745 198.556 96.7832C199.007 96.7919 199.454 96.6952 199.862 96.5006Z" fill="#263238"/>
<path d="M178.414 67.024L178.842 66.7727C178.547 67.8447 178.403 68.9528 178.414 70.0646V71.5975C178.414 77.1008 185.017 91.1606 187.448 96.1362C187.7 96.6577 184.364 100.207 184.364 100.207L188.328 97.9204C188.328 97.9204 198.235 89.7534 198.235 83.0439V81.511C198.235 74.7701 193.8 66.7476 188.328 63.5876C185.564 61.9981 183.07 61.9416 181.273 63.1478L177.503 65.3089L178.414 67.024ZM183.371 72.1692C183.371 69.028 185.589 67.7276 188.328 69.3107C188.102 71.3399 191.808 77.6599 193.278 77.8924C193.278 81.0335 191.061 82.334 188.328 80.7508C186.889 79.8085 185.693 78.5404 184.836 77.0494C183.98 75.5584 183.486 73.8865 183.396 72.1692H183.371Z" fill="#C49E85"/>
<path d="M174.338 74.0539C174.451 80.7885 184.678 100.207 184.678 100.207C184.678 100.207 194.454 91.9019 194.347 85.1673V83.6344C194.234 76.8998 189.666 68.9464 184.138 65.8806C178.61 62.8148 174.225 65.7801 174.338 72.521V74.0539ZM179.301 74.5439C179.25 71.4028 181.449 70.0646 184.207 71.5975C185.665 72.5139 186.886 73.7612 187.771 75.2381C188.656 76.715 189.181 78.3799 189.302 80.0975C189.359 83.2386 187.16 84.5768 184.396 83.0439C182.94 82.1256 181.72 80.8778 180.835 79.4013C179.95 77.9248 179.424 76.2609 179.301 74.5439Z" fill="#C49E85"/>
<path opacity="0.1" d="M174.338 74.0539C174.451 80.7885 184.678 100.207 184.678 100.207C184.678 100.207 194.454 91.9019 194.347 85.1673V83.6344C194.234 76.8998 189.666 68.9464 184.138 65.8806C178.61 62.8148 174.225 65.7801 174.338 72.521V74.0539ZM179.301 74.5439C179.25 71.4028 181.449 70.0646 184.207 71.5975C185.665 72.5139 186.886 73.7612 187.771 75.2381C188.656 76.715 189.181 78.3799 189.302 80.0975C189.359 83.2386 187.16 84.5768 184.396 83.0439C182.94 82.1256 181.72 80.8778 180.835 79.4013C179.95 77.9248 179.424 76.2609 179.301 74.5439Z" fill="black"/>
<path d="M78.5257 163.872C84.8771 167.528 99.7662 164.871 111.784 157.929L144.798 138.875C156.816 131.933 161.402 123.351 155.038 119.701C148.674 116.051 133.772 118.721 121.742 125.657L88.791 144.686C76.7792 151.622 72.1805 160.235 78.5257 163.872Z" fill="#F0F0F0"/>
<path d="M174.645 4.13173H174.677L180.111 0.990571H180.155C183.579 -0.743349 188.152 -0.265889 193.078 2.93809C202.978 9.30836 210.536 24.009 209.964 35.7632C209.675 41.6246 207.451 45.6453 204.015 47.4169H203.984L198.543 50.558H198.505C195.082 52.2982 190.502 51.8145 185.57 48.6168C175.676 42.2403 168.118 27.5459 168.69 15.7917C168.991 9.92403 171.246 5.90334 174.645 4.13173Z" fill="#37474F"/>
<path d="M198.82 50.3947L204.003 47.3792H204.04C207.445 45.6013 209.695 41.5806 209.983 35.7255C210.235 30.486 208.872 24.6623 206.409 19.2532L200.968 22.3944C203.437 27.8035 204.801 33.6272 204.543 38.8729C204.273 44.5898 202.112 48.5665 198.82 50.3947Z" fill="#263238"/>
<path d="M185.596 48.6105C175.701 42.234 168.143 27.5396 168.715 15.7854C169.287 4.0312 177.787 -0.335009 187.662 6.03526C197.538 12.4055 205.121 27.1061 204.549 38.8604C203.978 50.6146 195.49 54.9808 185.596 48.6105Z" fill="#455A64"/>
<path d="M193.888 47.7812C199.724 48.0639 200.673 41.4989 200.799 38.6719C201.301 28.3061 194.353 14.7991 185.627 9.17642C183.767 7.87402 181.604 7.07339 179.344 6.85196C173.514 6.56925 172.566 13.1343 172.434 15.9613C171.931 26.3271 178.873 39.8341 187.606 45.4882C189.465 46.7906 191.629 47.5912 193.888 47.8127V47.7812Z" fill="#FAFAFA"/>
<path d="M185.488 29.2673C185.557 29.2675 185.625 29.2547 185.689 29.2296C185.821 29.187 185.934 29.1024 186.013 28.9888C186.091 28.8753 186.13 28.7391 186.123 28.6013V13.6306C186.123 13.464 186.057 13.3042 185.939 13.1864C185.821 13.0685 185.661 13.0023 185.495 13.0023C185.328 13.0023 185.168 13.0685 185.051 13.1864C184.933 13.3042 184.866 13.464 184.866 13.6306V26.7795L177.874 17.7958C177.771 17.6625 177.619 17.5757 177.452 17.5545C177.284 17.5333 177.115 17.5794 176.982 17.6827C176.849 17.786 176.762 17.938 176.741 18.1053C176.72 18.2726 176.766 18.4415 176.869 18.5748L185.005 29.0223C185.062 29.0966 185.135 29.1572 185.219 29.1996C185.302 29.242 185.395 29.2651 185.488 29.2673Z" fill="#37474F"/>
<path d="M189.095 40.343C189.124 40.3487 189.154 40.3487 189.183 40.343C189.249 40.3226 189.306 40.2772 189.34 40.2163C189.374 40.1554 189.383 40.0837 189.365 40.0163L185.841 28.149C185.821 28.0815 185.775 28.0248 185.713 27.9912C185.651 27.9576 185.578 27.95 185.511 27.97C185.443 27.99 185.387 28.0359 185.353 28.0978C185.319 28.1596 185.312 28.2323 185.332 28.2998L188.85 40.1671C188.868 40.2179 188.901 40.262 188.945 40.2935C188.989 40.3249 189.041 40.3422 189.095 40.343Z" fill="#C49E85"/>
<path d="M185.69 25.6298C184.522 24.8822 183.523 25.3974 183.46 26.7795C183.464 27.5333 183.646 28.2756 183.991 28.9459C184.336 29.6162 184.834 30.1956 185.445 30.6368C186.607 31.3907 187.606 30.8755 187.675 29.4934C187.67 28.739 187.488 27.9963 187.143 27.3252C186.798 26.6541 186.3 26.0734 185.69 25.6298Z" fill="#C49E85"/>
<path d="M83.0618 160.197L90.7137 155.774L88.1631 154.304L80.5112 158.721L83.0618 160.197Z" fill="#C49E85"/>
<path d="M98.3714 151.358L106.03 146.935L103.473 145.465L95.8208 149.881L98.3714 151.358Z" fill="#C49E85"/>
<path d="M95.2239 149.555C95.2239 153.249 92.6355 157.722 89.4378 159.606C87.7353 160.593 86.2024 160.624 85.147 159.883C84.7215 159.549 84.372 159.127 84.1218 158.648C83.8716 158.168 83.7264 157.64 83.6958 157.1C83.9107 156.999 84.1204 156.888 84.324 156.767C87.5217 154.926 90.1101 150.434 90.1101 146.715C90.1131 146.44 90.0963 146.165 90.0598 145.892C90.539 145.639 91.0658 145.488 91.6066 145.449C92.1474 145.41 92.6903 145.484 93.2009 145.666C94.4574 146.194 95.2239 147.557 95.2239 149.555Z" fill="#263238"/>
<path d="M95.7458 141.966L95.639 141.903C94.0307 141.049 91.8696 141.206 89.4383 142.6C84.5067 145.446 80.5049 152.369 80.5049 158.067C80.5049 160.932 81.5163 162.936 83.1497 163.866C84.7831 164.796 86.9882 164.639 89.4321 163.238C94.3637 160.392 98.3592 153.462 98.3592 147.764C98.3655 144.9 97.3729 142.896 95.7458 141.966ZM89.4635 159.594C87.7547 160.58 86.2218 160.612 85.1664 159.864C84.2366 159.236 83.6712 157.979 83.6712 156.252C83.6712 152.564 86.2658 148.085 89.4635 146.2C90.921 145.358 92.2465 145.214 93.2329 145.647C94.4516 146.169 95.2181 147.532 95.2181 149.542C95.2244 153.261 92.636 157.753 89.4383 159.606L89.4635 159.594Z" fill="#37474F"/>
<path d="M93.5281 145.817L93.459 145.779C92.4161 145.22 91.0026 145.327 89.4383 146.225C86.2406 148.072 83.646 152.564 83.646 156.277C83.646 158.162 84.2742 159.418 85.3611 160.046C86.4479 160.674 87.874 160.549 89.4383 159.632C92.636 157.785 95.2243 153.293 95.2243 149.58C95.2243 147.72 94.5772 146.414 93.5281 145.817ZM89.4383 158.287C88.0687 159.079 86.8374 159.104 85.983 158.501C85.2417 157.979 84.7831 156.98 84.7831 155.598C84.8711 153.984 85.3385 152.412 86.1473 151.012C86.9561 149.611 88.0836 148.421 89.4383 147.538C89.8784 147.231 90.3841 147.031 90.9153 146.953C91.4464 146.876 91.9883 146.923 92.4978 147.092C93.4778 147.513 94.0935 148.606 94.0935 150.233C94.006 151.847 93.5388 153.418 92.7299 154.817C91.921 156.217 90.7932 157.406 89.4383 158.287Z" fill="#C49E85"/>
<path d="M113.682 142.512L121.34 138.096L118.789 136.619L111.131 141.042L113.682 142.512Z" fill="#C49E85"/>
<path d="M128.998 133.673L136.65 129.257L134.1 127.78L126.441 132.203L128.998 133.673Z" fill="#C49E85"/>
<path d="M144.308 124.834L151.96 120.417L149.409 118.941L141.751 123.364L144.308 124.834Z" fill="#C49E85"/>
<path d="M106.206 83.7287C106.286 83.6218 106.398 83.5432 106.526 83.5043C106.654 83.4653 106.79 83.4681 106.917 83.5123C107.043 83.5564 107.151 83.6395 107.227 83.7496C107.302 83.8597 107.341 83.991 107.337 84.1245C107.386 84.4821 107.35 84.8462 107.231 85.187C107.111 85.5277 106.913 85.8353 106.652 86.0845C106.15 86.518 105.641 86.3421 105.521 85.6888C105.473 85.3312 105.509 84.9672 105.628 84.6265C105.747 84.2859 105.945 83.9782 106.206 83.7287Z" fill="#C49E85"/>
<path d="M112.099 86.5055L106.979 83.5465L105.854 86.2542L110.993 89.2194L112.099 86.5055Z" fill="#C49E85"/>
<path d="M111.313 86.6751C111.815 86.2479 112.318 86.4238 112.444 87.0772C112.49 87.4342 112.451 87.7971 112.331 88.1366C112.211 88.476 112.013 88.7824 111.753 89.031C111.25 89.4644 110.741 89.2885 110.622 88.6352C110.576 88.2772 110.615 87.9135 110.735 87.5731C110.855 87.2327 111.053 86.9252 111.313 86.6751Z" fill="#C49E85"/>
<path d="M150.666 111.453C150.666 111.578 150.666 111.691 150.666 111.817C150.666 112.068 150.666 112.326 150.666 112.583C149.648 112.15 148.322 112.294 146.865 113.136C143.667 114.983 141.072 119.475 141.072 123.188C141.072 124.909 141.638 126.153 142.568 126.8C142.307 126.986 142.036 127.158 141.757 127.315L141.462 127.466L140.576 130.802L135.45 127.944C133.829 127.008 132.83 125.01 132.83 122.158C132.83 116.46 136.826 109.536 141.757 106.684C144.195 105.277 146.4 105.133 148.04 106.056L153.065 108.87L153.172 108.933L150.666 111.453Z" fill="#455A64"/>
<path d="M153.166 108.877L153.059 108.814C151.451 107.96 149.29 108.117 146.859 109.511C141.927 112.357 137.925 119.28 137.925 124.978C137.925 127.843 138.937 129.847 140.57 130.777C142.204 131.707 144.409 131.55 146.852 130.149C151.784 127.303 155.78 120.373 155.78 114.675C155.798 111.811 154.787 109.807 153.166 108.877ZM146.884 126.505C145.175 127.491 143.642 127.523 142.587 126.775C141.657 126.147 141.092 124.89 141.092 123.163C141.092 119.475 143.686 114.996 146.884 113.111C148.341 112.269 149.667 112.125 150.685 112.558C151.903 113.08 152.67 114.443 152.67 116.453C152.657 120.172 150.056 124.664 146.859 126.505H146.884Z" fill="#37474F"/>
<path d="M152.657 116.478C152.657 120.172 150.069 124.645 146.871 126.53C145.169 127.516 143.636 127.548 142.581 126.806C142.155 126.472 141.806 126.051 141.555 125.571C141.305 125.091 141.16 124.564 141.129 124.023C141.344 123.923 141.554 123.812 141.758 123.69C144.955 121.85 147.544 117.358 147.544 113.639C147.547 113.364 147.53 113.089 147.493 112.816C147.973 112.562 148.499 112.411 149.04 112.372C149.581 112.333 150.124 112.407 150.635 112.59C151.878 113.117 152.657 114.468 152.657 116.478Z" fill="#263238"/>
<path d="M150.948 112.728L150.879 112.684C149.837 112.131 148.417 112.232 146.859 113.136C143.661 114.983 141.066 119.469 141.066 123.188C141.066 125.073 141.695 126.329 142.781 126.957C143.868 127.585 145.294 127.454 146.859 126.536C150.056 124.696 152.645 120.204 152.645 116.485C152.657 114.631 152.029 113.331 150.948 112.728ZM146.859 125.192C145.483 125.99 144.252 126.015 143.403 125.412C142.656 124.89 142.204 123.892 142.204 122.509C142.292 120.895 142.759 119.323 143.568 117.923C144.377 116.522 145.504 115.332 146.859 114.449C148.027 113.771 149.095 113.651 149.912 114.003C150.892 114.424 151.508 115.517 151.508 117.144C151.42 118.757 150.954 120.326 150.146 121.724C149.338 123.123 148.212 124.311 146.859 125.192Z" fill="#C49E85"/>
<path d="M141.75 118.357L156.2 110.014C157.877 109.04 152.43 103.355 148.378 102.971C146.147 102.702 143.885 102.916 141.744 103.6C141.744 103.6 144.829 107.551 144.301 109.794C143.773 112.037 141.75 118.357 141.75 118.357Z" fill="#C49E85"/>
<path d="M121.34 94.7793C121.34 94.7793 142.286 105.346 143.19 105.981C144.095 106.615 143.19 113.984 141.752 118.357C140.313 122.729 138.102 129.451 137.216 131.336C136.33 133.221 135.174 133.924 133.051 135.149L117.973 143.863L97.5617 146.351L89.4575 141.953L91.5684 128.691C91.5684 128.691 113.261 117.151 116.233 115.436C119.204 113.72 127.993 105.673 121.34 94.7793Z" fill="#C49E85"/>
<path opacity="0.2" d="M121.34 94.7793C121.34 94.7793 142.286 105.346 143.19 105.981C144.095 106.615 143.19 113.984 141.752 118.357C140.313 122.729 138.102 129.451 137.216 131.336C136.33 133.221 135.174 133.924 133.051 135.149L117.973 143.863L97.5617 146.351L89.4575 141.953L91.5684 128.691C91.5684 128.691 113.261 117.151 116.233 115.436C119.204 113.72 127.993 105.673 121.34 94.7793Z" fill="black"/>
<path d="M143.592 115.838C145.476 110.774 146.884 106.577 146.645 103.744C146.356 100.383 145.099 97.6377 139.558 96.2556C134.017 94.8735 126.271 94.8986 126.271 94.8986L123.916 96.2619C123.916 96.2619 139.847 105.497 141.657 106.502C142.762 107.13 143.944 109.901 141.776 118.363L142.147 118.577C142.329 118.69 142.989 117.465 143.592 115.838Z" fill="#C49E85"/>
<path opacity="0.3" d="M143.592 115.838C145.476 110.774 146.884 106.577 146.645 103.744C146.356 100.383 145.099 97.6377 139.558 96.2556C134.017 94.8735 126.271 94.8986 126.271 94.8986L123.916 96.2619C123.916 96.2619 139.847 105.497 141.657 106.502C142.762 107.13 143.944 109.901 141.776 118.363L142.147 118.577C142.329 118.69 142.989 117.465 143.592 115.838Z" fill="white"/>
<path d="M131.524 100.672L134.1 99.202C134.1 99.202 133.949 90.2748 130.192 88.1074C126.435 85.94 113.682 87.4164 113.682 87.4164L111.131 88.8864L131.524 100.672Z" fill="#C49E85"/>
<path d="M123.168 90.1492C121.943 90.8591 121.943 92.0025 123.168 92.7061C123.855 93.0559 124.615 93.2382 125.385 93.2382C126.156 93.2382 126.916 93.0559 127.603 92.7061C128.822 92.0025 128.822 90.8528 127.603 90.1492C126.915 89.8024 126.156 89.6217 125.385 89.6217C124.615 89.6217 123.856 89.8024 123.168 90.1492Z" fill="#F0F0F0"/>
<path d="M127.088 94.4149C126.227 94.9175 126.227 95.7279 127.088 96.2242C127.574 96.4729 128.112 96.6026 128.658 96.6026C129.205 96.6026 129.743 96.4729 130.229 96.2242C131.096 95.7279 131.096 94.9175 130.229 94.4149C129.742 94.1692 129.204 94.0411 128.658 94.0411C128.113 94.0411 127.575 94.1692 127.088 94.4149Z" fill="#F0F0F0"/>
<path d="M117.219 89.0121C116.352 89.5084 116.352 90.3188 117.219 90.8214C117.706 91.0671 118.244 91.1952 118.789 91.1952C119.335 91.1952 119.873 91.0671 120.36 90.8214C121.227 90.3188 121.227 89.5084 120.36 89.0121C119.874 88.7634 119.335 88.6337 118.789 88.6337C118.243 88.6337 117.705 88.7634 117.219 89.0121Z" fill="#F0F0F0"/>
<path d="M131.926 98.0838C132.428 97.6503 132.931 97.8262 133.057 98.4795C133.103 98.8375 133.065 99.2014 132.945 99.5419C132.825 99.8823 132.626 100.19 132.366 100.44C132.286 100.547 132.174 100.625 132.046 100.664C131.918 100.703 131.781 100.7 131.655 100.656C131.529 100.612 131.421 100.529 131.345 100.419C131.269 100.309 131.231 100.177 131.235 100.044C131.187 99.6857 131.224 99.3213 131.344 98.9805C131.464 98.6397 131.664 98.3324 131.926 98.0838Z" fill="#C49E85"/>
<path d="M137.787 100.861L132.661 97.9016L131.542 100.609L136.675 103.568L137.787 100.861Z" fill="#C49E85"/>
<path d="M136.996 101.03C137.076 100.923 137.188 100.845 137.315 100.806C137.443 100.767 137.58 100.77 137.706 100.814C137.832 100.858 137.941 100.941 138.016 101.051C138.092 101.161 138.131 101.292 138.126 101.426C138.174 101.784 138.137 102.148 138.016 102.489C137.896 102.83 137.697 103.137 137.435 103.386C136.933 103.82 136.43 103.637 136.305 102.99C136.258 102.632 136.296 102.268 136.416 101.928C136.536 101.587 136.735 101.28 136.996 101.03Z" fill="#C49E85"/>
<path d="M136.996 101.03C137.076 100.923 137.188 100.845 137.315 100.806C137.443 100.767 137.58 100.77 137.706 100.814C137.832 100.858 137.941 100.941 138.016 101.051C138.092 101.161 138.131 101.292 138.126 101.426C138.174 101.784 138.137 102.148 138.016 102.489C137.896 102.83 137.697 103.137 137.435 103.386C136.933 103.82 136.43 103.637 136.305 102.99C136.258 102.632 136.296 102.268 136.416 101.928C136.536 101.587 136.735 101.28 136.996 101.03Z" fill="black"/>
<path d="M93.2455 144.529C93.2455 144.655 93.2455 144.768 93.2455 144.893C93.2455 145.145 93.2455 145.402 93.2455 145.66C92.2278 145.226 90.9022 145.371 89.4761 146.213C86.2784 148.06 83.6838 152.551 83.6838 156.264C83.6838 157.986 84.2492 159.23 85.179 159.877C84.918 160.062 84.6475 160.234 84.3686 160.392L84.0733 160.543L83.1875 163.878L78.0611 161.02C76.4403 160.084 75.4414 158.086 75.4414 155.234C75.4414 149.536 79.437 142.613 84.3686 139.761C86.8061 138.353 89.0112 138.209 90.6509 139.132L95.6768 141.947L95.7836 142.01L93.2455 144.529Z" fill="#455A64"/>
<path d="M77.9543 134.559L74.1284 147.821L81.7866 152.244L85.7507 139.063L77.9543 134.559Z" fill="#C49E85"/>
<path opacity="0.2" d="M77.9543 134.559L74.1284 147.821L81.7866 152.244L85.7507 139.063L77.9543 134.559Z" fill="black"/>
<path d="M77.9546 134.559C77.9546 134.559 82.2957 138.247 85.7509 139.063C90.2868 140.163 97.4989 140.282 100.056 140.458C103.963 140.728 106.916 140.722 108.298 140.226C110.089 139.597 114.901 136.802 116.233 136.035C118.783 134.565 119.87 128.779 112.84 127.196C108.087 126.211 103.245 125.716 98.391 125.72L77.9546 134.559Z" fill="#C49E85"/>
<path d="M121.246 132.863C121.027 133.409 120.88 133.981 120.806 134.565C120.604 135.172 120.556 135.82 120.668 136.45C121.147 137.242 121.9 137.83 122.785 138.102C123.422 138.244 124.082 138.253 124.723 138.129C125.364 138.004 125.972 137.749 126.51 137.38C127.811 136.601 128.791 135.658 130.638 135.131C131.958 134.851 133.202 134.287 134.282 133.478C135.306 132.655 136.675 130.381 134.715 129.853C132.755 129.326 128.496 131.185 124.613 131.355L121.246 132.863Z" fill="#37474F"/>
<path d="M121.246 130.438V133.34C121.364 133.666 121.571 133.953 121.843 134.169C122.114 134.386 122.44 134.523 122.785 134.565C123.1 134.611 123.422 134.577 123.721 134.465C124.191 134.285 124.599 133.972 124.894 133.563C125.189 133.154 125.357 132.669 125.379 132.165L125.492 130.438H121.246Z" fill="#FFA8A7"/>
<path d="M126.774 112.489C126.774 116.101 125.756 131.719 125.756 131.719C125.756 131.719 124.28 133.604 121.069 131.719L119.989 114.267L126.774 112.489Z" fill="#37474F"/>
<path d="M109.938 127.881L119.989 122.088C120.401 121.872 120.746 121.548 120.987 121.15C121.227 120.751 121.355 120.295 121.355 119.83C121.355 119.365 121.227 118.909 120.987 118.51C120.746 118.112 120.401 117.788 119.989 117.572L112.501 113.249C112.079 113.036 111.613 112.924 111.141 112.924C110.668 112.924 110.202 113.036 109.78 113.249L99.7288 119.042C99.3187 119.259 98.9756 119.584 98.7363 119.982C98.497 120.38 98.3706 120.836 98.3706 121.3C98.3706 121.764 98.497 122.22 98.7363 122.618C98.9756 123.016 99.3187 123.341 99.7288 123.559L107.217 127.881C107.639 128.094 108.105 128.206 108.577 128.206C109.05 128.206 109.516 128.094 109.938 127.881Z" fill="#C49E85"/>
<path d="M109.938 127.881L119.989 122.088C120.401 121.872 120.746 121.548 120.987 121.15C121.227 120.751 121.355 120.295 121.355 119.83C121.355 119.365 121.227 118.909 120.987 118.51C120.746 118.112 120.401 117.788 119.989 117.572L112.501 113.249C112.079 113.036 111.613 112.924 111.141 112.924C110.668 112.924 110.202 113.036 109.78 113.249L99.7288 119.042C99.3187 119.259 98.9756 119.584 98.7363 119.982C98.497 120.38 98.3706 120.836 98.3706 121.3C98.3706 121.764 98.497 122.22 98.7363 122.618C98.9756 123.016 99.3187 123.341 99.7288 123.559L107.217 127.881C107.639 128.094 108.105 128.206 108.577 128.206C109.05 128.206 109.516 128.094 109.938 127.881Z" fill="white"/>
<path d="M99.7288 120.612L107.217 124.934C107.639 125.148 108.105 125.259 108.577 125.259C109.05 125.259 109.516 125.148 109.938 124.934L119.989 119.142C120.153 119.086 120.296 118.981 120.397 118.84C120.498 118.699 120.552 118.53 120.552 118.357C120.552 118.184 120.498 118.015 120.397 117.874C120.296 117.733 120.153 117.627 119.989 117.572L112.501 113.249C112.079 113.036 111.613 112.924 111.141 112.924C110.668 112.924 110.202 113.036 109.781 113.249L99.7288 119.042C99.5647 119.097 99.4222 119.203 99.3213 119.344C99.2203 119.485 99.166 119.654 99.166 119.827C99.166 120 99.2203 120.169 99.3213 120.31C99.4222 120.451 99.5647 120.556 99.7288 120.612Z" fill="#C49E85"/>
<path d="M105.854 82.1644L104.579 87.4227L99.1006 87.7556L100.282 80.4682L105.854 82.1644Z" fill="#FFA8A7"/>
<path d="M111.194 78.2065C111.194 78.2065 111.822 80.4304 111.565 80.5561C111.169 80.6164 110.767 80.6164 110.371 80.5561L111.194 78.2065Z" fill="#F28F8F"/>
<path d="M110.145 71.1075C111.024 72.1441 111.829 73.8466 111.207 78.0181C110.528 82.579 109.686 83.1067 109.008 83.5465C108.122 84.1245 104.579 83.8166 103.58 83.0879C102.38 82.2146 100.527 79.4441 100.087 76.7113C99.5718 73.5011 100.646 69.939 103.008 69.3296C106.332 68.4689 109.397 70.228 110.145 71.1075Z" fill="#FFA8A7"/>
<path d="M99.7293 81.9445C100.577 82.824 102.318 83.0627 103.411 83.2638C104.504 83.4648 107.865 83.6847 108.857 81.2911C109.85 78.8976 109.172 77.1762 110.39 76.5982C111.609 76.0203 112.828 75.6433 113.148 75.3418C113.469 75.0402 113.475 71.1012 110.202 69.0595C106.929 67.0177 101.916 66.5465 98.6173 70.6866C96.1169 73.8843 97.1409 79.2431 99.7293 81.9445Z" fill="#455A64"/>
<path d="M103.027 83.2952C103.875 83.3706 106.558 82.9497 107.368 81.844C108.178 80.7383 108.505 78.7594 108.624 77.7228C108.635 77.3145 108.785 76.9222 109.049 76.6104C109.313 76.2987 109.675 76.0861 110.076 76.0077C110.886 75.7501 112.676 74.8706 112.676 74.8706V74.3806C113.254 74.3443 113.833 74.3443 114.41 74.3806C114.787 74.4497 114.58 75.0088 113.625 75.4926C112.67 75.9763 110.05 76.9124 109.648 77.2328C109.246 77.5532 109.058 78.9039 108.737 80.3425C108.417 81.7812 107.424 83.9297 103.027 83.2952Z" fill="#37474F"/>
<path d="M110.566 89.2445L113.707 87.4415C114.008 86.5306 113.525 86.072 112.67 86.1285C111.816 86.1851 112.08 85.3558 111.558 85.1234C110.873 84.8092 110.484 84.9851 110.176 84.8406C109.868 84.6962 109.736 84.3318 109.334 84.2878C107.538 84.1182 106.312 86.6814 106.312 86.6814L110.566 89.2445Z" fill="#F28F8F"/>
<path d="M89.2437 112.313C89.2437 112.313 103.121 105.434 105.54 104.322C107.959 103.21 111.753 101.596 113.77 101.596C114.558 101.661 115.296 102.008 115.849 102.573C116.402 103.139 116.732 103.885 116.779 104.674C116.805 105.886 116.736 107.098 116.572 108.299C112.759 109.55 108.863 110.53 104.912 111.233C99.1383 112.238 89.2437 112.313 89.2437 112.313Z" fill="#37474F"/>
<path d="M90.751 108.337C90.751 111.189 90.4809 114.154 91.6682 116.24C92.8556 118.325 99.2887 123.15 105.345 122.139C109.303 121.473 121.051 116.064 121.051 116.064C121.051 116.064 126.749 113.972 126.774 112.483C126.812 110.29 126.661 107.199 121.691 107.331C117.162 107.451 103.799 110.24 103.799 110.24L90.751 108.337Z" fill="#455A64"/>
<path d="M94.6279 85.739C96.7765 83.4962 98.2277 83.3078 99.258 83.5842C101.626 84.2618 103.918 85.1796 106.099 86.3233C106.099 86.3233 105.27 94.3521 109.197 96.664V109.178C109.197 109.178 109.077 110.535 107.368 111.886C105.861 113.073 102.449 114.273 98.3785 113.934C93.5411 113.532 90.7517 108.337 90.7517 108.337C90.7517 108.337 90.6261 98.1026 91.3109 94.038C92.115 89.2948 93.8866 86.518 94.6279 85.739Z" fill="#455A64"/>
<path d="M109.196 97.2733C109.196 97.2733 106.822 95.3886 106.099 92.9385C106.099 92.9385 106.382 96.7833 109.196 98.7308V97.2733Z" fill="#37474F"/>
<path d="M131.178 103.179C132.306 103.225 133.415 102.881 134.319 102.205C134.319 102.205 135.412 100.082 136.757 100.264C136.757 100.264 136.995 99.3591 136.443 99.0638C135.89 98.7685 135.651 98.8502 135.425 98.5361C135.199 98.222 135.174 97.6377 134.168 97.6377C133.754 97.6377 133.81 97.3424 132.805 97.2231C131.8 97.1037 130.807 99.4219 130.072 99.4219L131.178 103.179Z" fill="#FFA8A7"/>
<path d="M106.099 86.3233C109.548 86.8573 110.798 87.8813 112.055 89.0435C113.311 90.2057 121.001 97.9204 121.001 97.9204L130.311 99.2585C130.8 99.6547 131.159 100.189 131.341 100.791C131.718 101.885 131.379 103.078 131.021 103.361C131.021 103.361 121.786 103.914 119.97 103.568C118.155 103.223 109.165 97.2545 109.165 97.2545C108.306 96.6065 107.585 95.7929 107.045 94.8617C106.506 93.9305 106.158 92.9006 106.024 91.8328C105.439 88.0446 106.099 86.3233 106.099 86.3233Z" fill="#455A64"/>
<path d="M97.8188 119.506L83.5516 136.921C83.3932 136.941 83.2338 136.952 83.0742 136.952C82.5084 136.961 81.9493 136.83 81.447 136.569L69.3976 129.608L68.5809 129.137C68.1348 128.88 67.7642 127.824 67.7642 126.781V123.848C67.7637 120.834 68.5565 117.873 70.0628 115.263C71.5692 112.653 73.7361 110.485 76.3458 108.977L90.7323 100.672L106.042 109.511L97.8188 119.506Z" fill="#C49E85"/>
<g opacity="0.1">
<path d="M97.8188 119.506L83.5516 136.921C83.3932 136.941 83.2338 136.952 83.0742 136.952C82.5084 136.961 81.9493 136.83 81.447 136.569L69.3976 129.608L68.5809 129.137C68.1348 128.88 67.7642 127.824 67.7642 126.781V123.848C67.7637 120.834 68.5565 117.873 70.0628 115.263C71.5692 112.653 73.7361 110.485 76.3458 108.977L90.7323 100.672L106.042 109.511L97.8188 119.506Z" fill="black"/>
</g>
<path d="M92.9 125.512L106.024 109.518L90.7137 100.678L76.3335 108.977C74.4733 110.054 72.8323 111.471 71.4961 113.155L92.9 125.512Z" fill="#C49E85"/>
<path d="M106.024 122.359C106.024 123.401 105.659 124.457 105.207 124.714L104.39 125.186L84.6891 136.563C84.3306 136.756 83.938 136.878 83.5331 136.921C83.3747 136.941 83.2153 136.952 83.0557 136.952V132.687C83.0552 129.672 83.8486 126.711 85.3562 124.1C86.8638 121.49 89.0323 119.323 91.6436 117.817L93.2707 116.88L106.024 109.511V122.359Z" fill="#C49E85"/>
<g opacity="0.2">
<path d="M106.024 122.359C106.024 123.401 105.659 124.457 105.207 124.714L104.39 125.186L84.6891 136.563C84.3306 136.756 83.938 136.878 83.5331 136.921C83.3747 136.941 83.2153 136.952 83.0557 136.952V132.687C83.0552 129.672 83.8486 126.711 85.3562 124.1C86.8638 121.49 89.0323 119.323 91.6436 117.817L93.2707 116.88L106.024 109.511V122.359Z" fill="black"/>
</g>
<path d="M110.251 143.907L117.96 143.882L128.991 137.512L118.186 145.32L110.05 145.434L110.251 143.907Z" fill="#E0E0E0"/>
<path d="M91.5368 154.876C91.5368 154.876 105.433 149.636 106.614 149.021C108 148.171 109.316 147.211 110.547 146.15C110.798 145.817 110.916 145.403 110.878 144.988C110.84 144.573 110.648 144.188 110.34 143.907C110.34 143.907 104.686 143.649 103.234 144.095C102.424 144.34 89.3442 148.537 89.3442 148.537L91.5368 154.876Z" fill="#E0E0E0"/>
<path d="M90.9147 149.021C89.765 148.034 88.6091 148.443 88.3264 149.925C88.2184 150.743 88.3049 151.575 88.5789 152.354C88.8529 153.132 89.3066 153.835 89.9032 154.405C91.0529 155.391 92.2088 154.989 92.4915 153.5C92.599 152.682 92.5122 151.85 92.2383 151.072C91.9643 150.294 91.5109 149.591 90.9147 149.021Z" fill="#455A64"/>
</svg>
